if (_typeface_js && _typeface_js.loadFace) _typeface_js.loadFace({"glyphs":{"0":{"ha":612,"x_min":53,"x_max":646,"o":"m 646 412 q 586 135 646 251 q 350 -16 507 -16 q 114 136 194 -16 q 53 412 53 253 q 113 688 53 573 q 350 839 192 839 q 587 689 510 839 q 646 412 646 576 m 521 412 q 350 800 521 800 q 178 412 178 800 q 204 180 178 277 q 350 24 247 24 q 521 412 521 24 z "},"1":{"ha":485,"x_min":47,"x_max":438,"o":"m 438 0 l 186 0 l 186 686 q 183 726 186 720 q 148 741 177 741 l 47 744 l 47 770 q 300 839 164 795 l 300 119 q 339 42 300 59 q 438 31 359 33 l 438 0 z "},"2":{"ha":663,"x_min":47,"x_max":635,"o":"m 635 159 l 587 0 l 47 0 l 47 18 q 236 202 186 151 q 405 401 340 309 q 467 576 467 488 q 283 760 467 760 q 94 637 192 760 l 66 659 q 175 792 153 774 q 342 839 233 839 q 515 779 449 839 q 582 623 582 719 q 520 443 582 533 q 388 293 484 389 l 186 91 l 468 91 q 547 103 524 91 q 598 168 578 118 l 635 159 z "},"3":{"ha":661,"x_min":66,"x_max":614,"o":"m 614 322 q 510 101 614 193 q 269 -9 414 16 q 218 -16 227 -16 q 127 5 180 -16 q 66 61 66 31 q 84 99 66 78 q 120 120 102 120 q 188 85 128 120 q 306 50 248 50 q 446 121 394 50 q 493 267 493 184 q 307 451 493 451 q 191 431 236 451 l 182 462 q 434 654 434 549 q 296 773 434 773 q 127 663 195 773 l 98 685 l 157 770 q 239 822 180 802 q 340 839 291 839 q 489 799 432 839 q 553 674 553 755 q 497 581 553 623 q 393 522 475 564 l 393 519 q 548 459 487 509 q 614 322 614 406 z "},"4":{"ha":701,"x_min":33,"x_max":656,"o":"m 656 232 l 516 232 l 516 119 q 548 43 516 60 q 640 31 568 33 l 640 0 l 404 0 l 404 232 l 33 232 l 33 268 q 452 831 243 557 l 516 831 l 516 294 l 656 294 l 656 232 m 404 294 l 404 695 l 401 695 q 127 294 258 497 l 404 294 z "},"5":{"ha":671,"x_min":71,"x_max":624,"o":"m 624 310 q 497 79 624 177 q 226 -16 375 -16 q 133 5 184 -16 q 71 62 71 30 q 88 99 71 79 q 121 119 104 119 q 196 84 138 119 q 317 50 254 50 q 460 113 408 50 q 508 254 508 170 q 262 465 508 465 q 121 438 205 465 l 168 823 l 582 823 l 561 732 l 212 732 l 175 505 q 341 541 276 541 q 541 481 463 541 q 624 310 624 418 z "},"6":{"ha":694,"x_min":57,"x_max":647,"o":"m 647 275 q 565 70 647 153 q 347 -16 479 -16 q 128 90 210 -16 q 57 313 57 183 q 155 612 57 478 q 427 804 257 750 q 615 847 523 833 l 623 814 q 201 454 279 764 q 290 495 246 475 q 387 517 345 517 q 575 449 503 517 q 647 275 647 380 m 526 228 q 483 381 526 322 q 334 450 433 450 q 192 414 250 450 q 184 303 184 374 q 224 125 184 203 q 374 24 276 24 q 526 228 526 24 z "},"7":{"ha":705,"x_min":77,"x_max":658,"o":"m 658 808 q 264 -3 449 405 l 149 -16 l 142 -3 q 561 732 373 367 l 238 732 q 154 721 174 732 q 113 644 129 705 l 77 644 q 100 823 92 740 l 647 823 l 658 808 z "},"8":{"ha":675,"x_min":73,"x_max":627,"o":"m 627 233 q 545 56 627 128 q 345 -16 463 -16 q 154 41 231 -16 q 73 204 73 102 q 274 423 73 341 q 104 622 104 504 q 182 778 104 715 q 360 839 256 839 q 524 789 458 839 q 593 650 593 737 q 542 538 593 585 q 430 463 524 521 q 627 233 627 368 m 486 654 q 451 757 486 718 q 345 800 414 800 q 246 759 283 800 q 212 663 212 722 q 276 555 212 607 q 395 481 306 531 q 486 654 486 537 m 519 189 q 453 322 519 266 q 312 406 416 353 q 188 210 188 337 q 232 82 188 134 q 361 24 281 24 q 481 73 439 24 q 519 189 519 117 z "},"9":{"ha":688,"x_min":58,"x_max":642,"o":"m 642 509 q 553 216 642 348 q 300 21 461 78 q 96 -20 184 -20 l 92 7 q 507 395 426 73 q 415 347 460 371 q 315 322 361 322 q 130 391 201 322 q 58 563 58 459 q 145 757 58 675 q 355 839 231 839 q 574 734 497 839 q 642 509 642 644 m 515 512 q 334 800 515 800 q 214 739 255 800 q 178 612 178 688 q 226 464 178 525 q 372 394 279 394 q 509 433 448 394 q 515 512 515 473 z "}," ":{"ha":484,"x_min":0,"x_max":0,"o":""},"!":{"ha":326,"x_min":113,"x_max":280,"o":"m 269 842 q 260 736 269 815 q 214 252 234 497 q 195 247 207 247 q 176 252 184 247 q 131 736 157 497 q 123 842 123 815 q 195 878 123 878 q 269 842 269 878 m 280 62 q 256 6 280 28 q 195 -16 232 -16 q 136 7 160 -16 q 113 62 113 30 q 136 117 113 95 q 195 140 159 140 q 257 118 233 140 q 280 62 280 97 z "},"\"":{"ha":500,"x_min":74,"x_max":436,"o":"m 436 907 q 429 852 436 897 l 388 598 q 372 594 380 594 q 353 598 360 594 l 312 851 q 304 907 304 895 q 370 937 304 937 q 436 907 436 937 m 205 907 q 199 852 205 897 l 157 598 q 142 594 151 594 q 123 598 130 594 l 82 851 q 74 907 74 900 q 140 937 74 937 q 205 907 205 937 z "},"#":{"ha":640,"x_min":14,"x_max":685,"o":"m 685 599 l 673 526 l 522 526 l 475 325 l 621 325 l 607 252 l 458 252 l 399 0 l 347 0 l 405 252 l 232 252 l 174 0 l 119 0 l 178 252 l 14 252 l 29 325 l 195 325 l 243 526 l 83 526 l 95 599 l 260 599 l 311 823 l 365 823 l 313 599 l 486 599 l 537 823 l 590 823 l 538 599 l 685 599 m 469 526 l 298 526 l 251 325 l 423 325 l 469 526 z "},"$":{"ha":604,"x_min":62,"x_max":636,"o":"m 636 235 q 387 4 636 41 l 387 -107 l 336 -107 l 336 0 q 104 53 213 0 q 62 224 89 113 l 98 228 q 336 41 177 54 l 336 378 q 174 459 220 425 q 98 604 98 518 q 168 754 98 696 q 336 819 231 806 l 336 920 l 387 920 l 387 823 q 568 797 432 823 l 600 633 l 562 629 q 387 783 526 767 l 387 476 q 560 393 510 433 q 636 235 636 334 m 336 497 l 336 783 q 191 642 191 767 q 336 497 191 559 m 530 186 q 495 295 530 258 q 387 356 467 324 l 387 43 q 530 186 530 73 z "},"%":{"ha":1149,"x_min":66,"x_max":1165,"o":"m 1165 240 q 1109 68 1165 141 q 942 -16 1046 -16 q 777 69 841 -16 q 719 240 719 144 q 774 413 719 340 q 942 496 838 496 q 1112 414 1050 496 q 1165 240 1165 343 m 924 827 l 334 -53 l 287 -22 l 877 855 l 924 827 m 512 583 q 456 410 512 484 q 288 328 393 328 q 123 412 188 328 q 66 583 66 488 q 121 755 66 682 q 288 839 184 839 q 458 757 396 839 q 512 583 512 686 m 1060 235 q 943 459 1060 459 q 846 380 877 459 q 824 248 824 323 q 846 105 824 164 q 943 21 876 21 q 1040 103 1009 21 q 1060 235 1060 159 m 407 574 q 290 802 407 802 q 193 722 224 802 q 171 591 171 665 q 193 448 171 508 q 290 364 224 364 q 386 444 356 364 q 407 574 407 500 z "},"&":{"ha":1013,"x_min":75,"x_max":1029,"o":"m 1029 517 q 930 496 962 513 q 741 269 890 477 q 987 -18 914 106 l 979 -28 q 806 28 846 -9 q 757 87 789 48 q 675 178 726 123 q 360 -20 519 -20 q 163 42 245 -20 q 75 210 75 108 q 154 367 75 296 q 315 470 203 410 q 181 650 181 554 q 250 799 181 738 q 414 860 318 860 q 565 811 504 860 q 629 681 629 760 q 570 572 629 619 q 452 504 548 555 q 709 300 511 467 q 810 486 810 439 q 703 517 810 509 l 703 547 l 1029 547 l 1029 517 m 522 685 q 490 779 522 741 q 395 819 456 819 q 310 780 342 819 q 281 695 281 745 q 418 526 281 623 q 522 685 522 585 m 646 210 q 353 447 526 326 q 195 241 195 357 q 255 115 195 165 q 398 64 314 64 q 646 210 530 64 z "},"'":{"ha":265,"x_min":73,"x_max":284,"o":"m 284 797 q 222 674 284 727 q 86 610 168 629 l 73 635 q 197 766 197 686 q 165 833 197 810 q 107 859 152 842 q 75 885 75 869 q 94 922 75 907 q 137 937 113 937 q 243 896 201 937 q 284 797 284 855 z "},"(":{"ha":416,"x_min":124,"x_max":446,"o":"m 446 -197 l 427 -222 q 124 357 124 -33 q 427 937 124 750 l 446 910 q 264 659 325 825 q 214 357 214 522 q 266 56 214 196 q 446 -197 327 -109 z "},")":{"ha":434,"x_min":94,"x_max":416,"o":"m 416 357 q 113 -222 416 -33 l 94 -197 q 326 357 326 -31 q 94 910 326 751 l 113 937 q 416 357 416 750 z "},"*":{"ha":527,"x_min":67,"x_max":565,"o":"m 565 660 l 357 627 l 418 431 l 391 420 l 280 604 l 90 497 l 71 522 l 232 653 l 67 800 l 89 822 l 275 709 l 369 895 l 397 888 l 355 692 l 565 690 l 565 660 z "},"+":{"ha":772,"x_min":73,"x_max":827,"o":"m 827 335 l 490 335 l 490 0 l 411 0 l 411 335 l 73 335 l 73 394 l 411 394 l 411 698 l 490 698 l 490 394 l 827 394 l 827 335 z "},",":{"ha":365,"x_min":70,"x_max":284,"o":"m 284 32 q 222 -96 284 -41 q 85 -169 170 -144 l 70 -141 q 188 -5 188 -88 q 90 95 188 77 l 81 104 q 73 125 73 110 q 95 167 73 150 q 144 184 117 184 q 247 134 207 184 q 284 32 284 90 z "},"-":{"ha":415,"x_min":87,"x_max":445,"o":"m 445 261 l 87 261 l 87 336 l 445 336 l 445 261 z "},".":{"ha":345,"x_min":89,"x_max":262,"o":"m 262 64 q 238 7 262 30 q 175 -16 214 -16 q 114 7 139 -16 q 89 64 89 31 q 114 121 89 98 q 175 144 138 144 q 238 122 214 144 q 262 64 262 100 z "},"/":{"ha":395,"x_min":29,"x_max":423,"o":"m 423 878 l 113 -59 l 29 -59 l 340 878 l 423 878 z "},":":{"ha":320,"x_min":89,"x_max":262,"o":"m 262 494 q 238 436 262 458 q 175 413 214 413 q 114 437 139 413 q 89 494 89 460 q 114 550 89 527 q 175 573 138 573 q 238 551 214 573 q 262 494 262 529 m 262 64 q 238 7 262 30 q 175 -16 214 -16 q 114 7 139 -16 q 89 64 89 31 q 114 121 89 98 q 175 144 138 144 q 238 122 214 144 q 262 64 262 100 z "},";":{"ha":340,"x_min":70,"x_max":284,"o":"m 262 494 q 238 436 262 458 q 175 413 214 413 q 114 437 139 413 q 89 494 89 460 q 114 550 89 527 q 175 573 138 573 q 238 551 214 573 q 262 494 262 529 m 284 32 q 222 -96 284 -41 q 85 -169 170 -144 l 70 -141 q 188 -5 188 -88 q 90 95 188 77 l 81 104 q 73 125 73 110 q 95 167 73 150 q 144 184 117 184 q 247 134 207 184 q 284 32 284 90 z "},"<":{"ha":849,"x_min":87,"x_max":812,"o":"m 812 0 l 87 334 l 87 393 l 812 727 l 812 663 l 171 366 l 171 361 l 812 63 l 812 0 z "},"=":{"ha":772,"x_min":73,"x_max":827,"o":"m 827 466 l 73 466 l 73 525 l 827 525 l 827 466 m 827 204 l 73 204 l 73 264 l 827 264 l 827 204 z "},">":{"ha":758,"x_min":87,"x_max":812,"o":"m 812 334 l 87 0 l 87 63 l 729 361 l 729 366 l 87 663 l 87 727 l 812 393 l 812 334 z "},"?":{"ha":536,"x_min":64,"x_max":574,"o":"m 574 714 q 497 548 574 629 q 355 425 496 547 q 277 310 277 359 q 306 248 277 276 l 304 239 l 286 226 l 275 226 q 216 323 216 267 q 329 502 216 387 q 441 684 441 616 q 387 791 441 749 q 262 831 336 831 q 171 814 220 831 q 109 717 153 799 l 100 712 l 68 715 l 64 724 l 119 873 q 300 922 202 922 q 490 871 415 922 q 574 714 574 814 m 374 65 q 349 11 374 33 q 288 -12 324 -12 q 228 11 254 -12 q 203 65 203 33 q 228 120 203 97 q 288 142 253 142 q 349 120 324 142 q 374 65 374 97 z "},"@":{"ha":969,"x_min":66,"x_max":1034,"o":"m 1034 534 q 933 299 1034 393 q 678 205 833 205 q 616 250 616 205 q 627 320 616 277 q 647 389 637 355 l 644 391 q 526 277 608 340 q 382 205 433 205 q 323 301 323 205 q 425 547 323 434 q 676 666 532 666 q 733 658 696 666 q 790 650 771 650 q 712 285 712 323 q 743 253 712 253 q 895 332 822 253 q 967 541 967 410 q 870 752 967 674 q 629 826 778 826 q 296 699 425 826 q 170 389 170 575 q 275 124 170 221 q 566 28 381 28 q 786 68 685 28 l 796 39 q 525 -20 668 -20 q 196 83 322 -20 q 66 372 66 191 q 246 744 66 605 q 627 878 420 878 q 915 785 801 878 q 1034 534 1034 690 m 694 608 q 610 620 663 620 q 473 506 530 620 q 426 328 426 412 q 455 278 426 278 q 649 439 514 278 q 694 608 678 533 z "},"A":{"ha":911,"x_min":0,"x_max":941,"o":"m 941 0 l 587 0 l 587 31 q 686 66 686 25 q 586 326 686 95 l 290 326 q 205 79 205 118 q 312 31 205 26 l 312 0 l 0 0 l 0 31 q 106 68 74 35 q 157 165 124 87 l 458 865 l 491 878 q 785 157 536 770 q 838 65 812 89 q 941 31 871 33 l 941 0 m 568 376 l 439 701 l 436 701 l 309 376 l 568 376 z "},"B":{"ha":760,"x_min":50,"x_max":799,"o":"m 799 253 q 661 49 799 113 q 385 0 556 0 l 50 0 l 50 31 q 169 70 145 33 q 184 191 184 94 l 184 857 l 450 857 q 738 666 738 857 q 680 543 738 597 q 547 477 626 494 l 547 475 q 724 409 657 463 q 799 253 799 349 m 608 652 q 399 819 608 819 l 328 819 q 306 792 306 819 l 306 484 l 398 484 q 608 652 608 484 m 658 237 q 581 397 658 342 q 391 446 511 446 l 306 446 l 306 68 q 330 46 306 50 q 370 46 334 46 q 573 77 511 46 q 658 237 658 119 z "},"C":{"ha":894,"x_min":62,"x_max":935,"o":"m 935 229 q 860 18 913 157 q 586 -20 673 -20 q 186 120 317 -20 q 62 417 62 252 q 224 755 62 627 q 614 878 379 878 q 877 844 741 878 q 903 644 892 741 l 866 641 q 774 789 837 744 q 593 833 711 833 q 303 724 406 833 q 208 447 208 621 q 297 155 208 270 q 587 24 399 24 q 781 80 704 24 q 898 233 848 130 l 935 229 z "},"D":{"ha":954,"x_min":47,"x_max":1000,"o":"m 1000 467 q 817 109 1000 231 q 382 0 654 0 l 47 0 l 47 31 q 168 69 144 33 q 184 191 184 93 l 184 857 l 467 857 q 840 771 701 857 q 1000 467 1000 671 m 859 433 q 754 728 859 637 q 425 819 650 819 l 328 819 q 306 792 306 819 l 306 68 q 328 46 306 46 q 709 123 585 46 q 859 433 859 214 z "},"E":{"ha":797,"x_min":41,"x_max":785,"o":"m 785 212 q 730 0 760 103 l 41 0 l 41 31 l 125 31 q 161 60 135 31 q 184 153 184 86 l 184 705 q 125 827 184 799 l 56 827 l 56 857 l 694 857 l 710 665 l 672 665 q 626 777 654 748 q 503 814 590 814 l 328 814 q 306 792 306 814 l 306 472 l 454 472 q 563 486 541 472 q 598 578 590 504 l 635 578 l 635 316 l 598 316 q 563 408 591 390 q 454 423 541 423 l 306 423 l 306 68 q 328 46 306 46 l 604 46 q 640 59 615 46 q 675 82 665 73 q 745 212 711 116 l 785 212 z "},"F":{"ha":682,"x_min":57,"x_max":706,"o":"m 706 665 l 669 661 q 609 787 648 760 q 456 814 571 814 l 328 814 q 308 792 308 814 l 308 458 l 467 458 q 576 472 554 458 q 611 563 604 490 l 647 563 l 647 303 l 611 303 q 576 395 604 378 q 467 409 555 409 l 308 409 l 308 191 q 328 65 308 91 q 459 31 355 33 l 459 0 l 57 0 l 57 31 q 172 73 149 33 q 185 191 185 96 l 185 857 l 690 857 l 706 665 z "},"G":{"ha":953,"x_min":62,"x_max":989,"o":"m 989 353 q 916 330 932 347 q 903 153 903 315 q 911 33 903 74 q 593 -20 697 -20 q 221 98 372 -20 q 62 419 62 222 q 220 754 62 626 q 602 878 371 878 q 881 844 767 878 q 904 638 886 775 l 869 635 q 775 788 842 743 q 584 833 708 833 q 207 437 207 833 q 296 160 207 286 q 610 24 392 24 q 772 64 748 24 q 781 125 781 77 l 781 382 l 989 382 l 989 353 z "},"H":{"ha":1000,"x_min":47,"x_max":1066,"o":"m 1066 0 l 812 0 l 812 426 l 306 426 l 306 191 q 321 74 306 100 q 437 31 346 33 l 437 0 l 184 0 l 184 666 q 169 789 184 766 q 47 827 146 825 l 47 857 l 306 857 l 306 479 l 812 479 l 812 666 q 808 755 812 732 q 755 821 796 811 q 684 827 733 826 l 684 857 l 935 857 l 935 191 q 949 72 935 96 q 1066 31 973 33 l 1066 0 z "},"I":{"ha":408,"x_min":53,"x_max":437,"o":"m 437 0 l 184 0 l 184 666 q 169 789 184 766 q 53 827 146 825 l 53 857 l 306 857 l 306 191 q 321 74 306 100 q 437 31 346 33 l 437 0 z "},"J":{"ha":387,"x_min":32,"x_max":323,"o":"m 323 200 q 302 23 323 86 q 194 -119 273 -61 q 47 -186 124 -169 l 32 -156 q 184 7 161 -105 q 200 237 200 90 l 200 666 q 184 790 200 767 q 62 827 161 825 l 62 857 l 323 857 l 323 200 z "},"K":{"ha":978,"x_min":50,"x_max":1003,"o":"m 1003 857 l 984 827 q 820 808 864 825 q 425 486 743 781 q 636 264 600 302 q 854 64 798 100 q 951 31 901 35 l 951 0 l 735 0 q 306 441 545 201 l 306 191 q 323 70 306 95 q 444 31 347 33 l 444 0 l 184 0 l 184 666 q 170 788 184 765 q 50 827 146 825 l 50 857 l 306 857 l 306 444 q 507 623 361 486 q 671 802 671 778 q 576 827 671 819 l 576 857 l 1003 857 z "},"L":{"ha":808,"x_min":50,"x_max":758,"o":"m 758 208 q 707 0 736 103 l 50 0 l 50 31 q 169 71 145 33 q 184 191 184 94 l 184 857 l 444 857 l 444 827 q 322 788 347 826 q 306 666 306 764 l 306 190 q 326 74 306 94 q 439 46 343 55 q 479 44 467 44 q 644 77 599 44 q 722 212 684 106 l 758 208 z "},"M":{"ha":1187,"x_min":32,"x_max":1240,"o":"m 1240 827 q 1128 800 1151 826 q 1107 695 1107 778 q 1116 348 1107 558 q 1129 0 1122 174 l 872 0 l 872 31 q 985 65 964 34 q 998 176 998 85 q 992 723 998 182 l 985 723 l 629 15 l 592 15 l 255 705 l 252 705 q 234 182 234 241 q 252 66 234 90 q 374 31 275 38 l 374 0 l 32 0 l 32 31 q 121 50 92 35 q 155 99 146 64 q 180 350 170 172 l 205 857 l 299 857 l 652 178 l 999 857 l 1240 857 l 1240 827 z "},"N":{"ha":970,"x_min":28,"x_max":1034,"o":"m 1034 827 q 908 760 922 826 q 897 508 897 704 l 897 -9 l 859 -9 l 226 686 l 223 686 l 223 332 q 234 99 223 144 q 275 50 242 67 q 377 31 308 33 l 377 0 l 28 0 l 28 31 q 153 99 141 31 q 165 350 165 163 l 165 857 l 222 857 l 836 193 l 838 193 l 838 857 l 1034 857 l 1034 827 z "},"O":{"ha":1086,"x_min":62,"x_max":1024,"o":"m 1024 441 q 889 113 1024 242 q 534 -20 752 -20 q 194 107 328 -20 q 62 419 62 232 q 204 746 62 614 q 559 878 345 878 q 896 751 764 878 q 1024 441 1024 627 m 882 381 q 522 833 882 833 q 277 713 361 833 q 204 458 204 611 q 290 168 204 290 q 565 24 389 24 q 807 136 721 24 q 882 381 882 234 z "},"P":{"ha":711,"x_min":50,"x_max":761,"o":"m 761 622 q 677 439 761 514 q 477 356 597 368 q 411 354 422 351 l 303 379 l 303 191 q 326 66 303 92 q 456 31 352 33 l 456 0 l 50 0 l 50 31 q 166 71 143 33 q 181 191 181 95 l 181 857 l 426 857 q 761 622 761 857 m 624 617 q 391 819 624 819 l 328 819 q 311 810 319 819 q 303 792 303 801 l 303 418 q 413 403 338 403 q 573 465 518 403 q 624 617 624 521 z "},"Q":{"ha":983,"x_min":62,"x_max":1053,"o":"m 1053 -195 l 735 -146 l 505 -19 q 184 117 307 -5 q 62 419 62 239 q 204 746 62 614 q 559 878 345 878 q 895 751 764 878 q 1024 441 1024 627 q 935 165 1024 283 q 678 -1 841 41 l 1053 -195 m 882 392 q 522 833 882 833 q 276 713 361 833 q 204 458 204 611 q 272 193 204 309 q 498 29 351 56 l 585 50 l 623 29 q 882 392 882 71 z "},"R":{"ha":951,"x_min":50,"x_max":910,"o":"m 910 0 l 694 0 l 448 379 l 306 378 l 306 191 q 321 74 306 100 q 437 31 346 33 l 437 0 l 50 0 l 50 31 q 169 71 145 33 q 184 191 184 94 l 184 857 l 426 857 q 753 644 753 857 q 559 413 753 480 l 788 83 q 840 42 810 52 q 910 31 843 41 l 910 0 m 621 625 q 562 768 621 718 q 401 819 503 819 l 328 819 q 306 792 306 819 l 306 416 l 391 416 q 562 470 502 416 q 621 625 621 525 z "},"S":{"ha":617,"x_min":58,"x_max":643,"o":"m 643 245 q 546 51 643 125 q 319 -20 454 -20 q 100 28 222 -20 q 58 227 97 44 l 95 232 q 188 91 143 136 q 347 24 255 24 q 528 194 528 24 q 451 336 528 281 q 286 418 430 351 q 127 534 176 471 q 95 635 95 576 q 185 814 95 747 q 395 878 269 878 q 572 846 441 878 q 598 667 581 781 l 561 663 q 363 833 519 833 q 249 793 292 833 q 205 688 205 752 q 319 536 205 593 q 530 440 425 488 q 643 245 643 370 z "},"T":{"ha":798,"x_min":35,"x_max":834,"o":"m 834 663 l 798 659 q 736 786 775 758 q 585 814 698 814 l 487 814 l 487 191 q 509 65 487 91 q 642 31 536 33 l 642 0 l 216 0 l 216 31 q 345 66 319 33 q 365 191 365 91 l 365 814 l 35 814 l 35 857 l 823 857 q 834 663 823 793 z "},"U":{"ha":947,"x_min":39,"x_max":908,"o":"m 908 827 q 783 758 797 826 q 771 649 774 715 q 770 528 769 602 q 771 418 771 416 q 390 -20 771 -20 q 268 -4 334 -20 q 82 127 136 28 q 39 344 39 206 l 39 857 l 290 857 l 290 827 q 175 785 197 826 q 161 666 161 762 l 161 391 q 433 44 161 44 q 679 205 618 44 q 713 507 713 296 q 701 759 713 705 q 665 810 692 795 q 558 827 634 826 l 558 857 l 908 857 l 908 827 z "},"V":{"ha":1002,"x_min":35,"x_max":1073,"o":"m 1073 857 l 1052 827 q 891 801 922 825 q 514 -7 846 766 l 471 -7 l 35 1012 l 237 857 q 532 157 319 656 q 780 782 780 746 q 736 823 780 814 q 669 857 701 831 l 1073 857 z "},"W":{"ha":1373,"x_min":35,"x_max":1461,"o":"m 1461 857 l 1440 827 q 1294 806 1326 824 q 1222 691 1254 783 l 980 -7 l 941 -7 l 678 637 l 437 -7 l 397 -7 l 35 1012 l 237 857 l 455 182 l 458 182 l 692 844 l 726 844 l 989 184 l 994 184 q 1173 781 1173 707 q 1132 822 1173 813 q 1067 857 1106 828 l 1461 857 z "},"X":{"ha":982,"x_min":0,"x_max":954,"o":"m 954 0 l 570 0 l 570 31 q 665 61 665 41 q 446 385 665 73 q 332 216 399 319 q 241 60 241 79 q 281 34 241 40 q 338 31 284 33 l 338 0 l 7 0 l 7 31 q 102 48 67 34 q 166 96 137 62 q 418 428 205 141 l 0 1012 q 237 857 79 961 q 488 525 248 850 q 667 800 667 774 q 568 827 667 819 l 568 857 l 894 857 l 894 827 q 789 806 823 823 q 516 483 739 780 q 764 140 600 370 q 840 58 807 78 q 954 31 880 34 l 954 0 z "},"Y":{"ha":810,"x_min":0,"x_max":867,"o":"m 867 827 q 771 802 800 823 q 641 625 741 779 q 517 426 564 506 q 493 355 493 382 l 493 191 q 513 66 493 92 q 644 31 540 33 l 644 0 l 224 0 l 224 31 q 352 66 326 33 q 370 191 370 92 l 370 341 q 366 375 370 365 q 338 420 364 380 q 0 1012 229 593 l 201 857 q 467 433 313 673 q 661 794 661 753 q 612 821 661 812 q 547 827 580 824 l 547 857 l 867 857 l 867 827 z "},"Z":{"ha":854,"x_min":33,"x_max":854,"o":"m 854 212 q 802 0 826 74 l 41 0 l 33 15 l 654 814 l 388 814 q 218 788 258 814 q 146 652 176 760 l 110 652 q 123 857 121 787 l 814 857 l 821 844 l 205 52 l 626 52 q 682 62 647 52 q 732 84 717 73 q 818 219 779 121 l 854 212 z "},"[":{"ha":399,"x_min":195,"x_max":427,"o":"m 427 -214 l 195 -214 l 195 929 l 427 929 l 427 897 q 307 882 326 893 q 273 783 273 863 l 273 -68 q 309 -167 273 -146 q 427 -182 331 -178 l 427 -214 z "},"\\":{"ha":456,"x_min":43,"x_max":423,"o":"m 423 -59 l 340 -59 l 43 878 l 127 878 l 423 -59 z "},"]":{"ha":404,"x_min":113,"x_max":344,"o":"m 344 -214 l 113 -214 l 113 -182 q 193 -176 171 -180 q 261 -145 248 -168 q 267 -68 267 -135 l 267 783 q 247 877 267 861 q 113 897 227 892 l 113 929 l 344 929 l 344 -214 z "},"^":{"ha":733,"x_min":115,"x_max":786,"o":"m 786 232 l 704 232 l 448 734 l 191 232 l 115 232 l 420 823 l 481 823 l 786 232 z "},"_":{"ha":681,"x_min":0,"x_max":729,"o":"m 729 -165 l 0 -165 l 0 -99 l 729 -99 l 729 -165 z "},"`":{"ha":271,"x_min":73,"x_max":284,"o":"m 284 921 q 160 791 160 869 q 262 694 160 718 q 281 670 281 690 q 220 618 281 618 q 117 663 162 618 q 73 759 73 707 q 136 882 73 829 q 271 946 191 928 l 284 921 z "},"a":{"ha":968,"x_min":0,"x_max":941,"o":"m 941 0 l 587 0 l 587 31 q 686 66 686 25 q 586 326 686 95 l 290 326 q 205 79 205 118 q 312 31 205 26 l 312 0 l 0 0 l 0 31 q 106 68 74 35 q 157 165 124 87 l 458 865 l 491 878 q 785 157 536 770 q 838 65 812 89 q 941 31 871 33 l 941 0 m 568 376 l 439 701 l 436 701 l 309 376 l 568 376 z "},"b":{"ha":760,"x_min":50,"x_max":799,"o":"m 799 253 q 661 49 799 113 q 385 0 556 0 l 50 0 l 50 31 q 169 70 145 33 q 184 191 184 94 l 184 857 l 450 857 q 738 666 738 857 q 680 543 738 597 q 547 477 626 494 l 547 475 q 724 409 657 463 q 799 253 799 349 m 608 652 q 399 819 608 819 l 328 819 q 306 792 306 819 l 306 484 l 398 484 q 608 652 608 484 m 658 237 q 581 397 658 342 q 391 446 511 446 l 306 446 l 306 68 q 330 46 306 50 q 370 46 334 46 q 573 77 511 46 q 658 237 658 119 z "},"c":{"ha":894,"x_min":62,"x_max":935,"o":"m 935 229 q 860 18 913 157 q 586 -20 673 -20 q 186 120 317 -20 q 62 417 62 252 q 224 755 62 627 q 614 878 379 878 q 877 844 741 878 q 903 644 892 741 l 866 641 q 774 789 837 744 q 593 833 711 833 q 303 724 406 833 q 208 447 208 621 q 297 155 208 270 q 587 24 399 24 q 781 80 704 24 q 898 233 848 130 l 935 229 z "},"d":{"ha":954,"x_min":47,"x_max":1000,"o":"m 1000 467 q 817 109 1000 231 q 382 0 654 0 l 47 0 l 47 31 q 168 69 144 33 q 184 191 184 93 l 184 857 l 467 857 q 840 771 701 857 q 1000 467 1000 671 m 859 433 q 754 728 859 637 q 425 819 650 819 l 328 819 q 306 792 306 819 l 306 68 q 328 46 306 46 q 709 123 585 46 q 859 433 859 214 z "},"e":{"ha":797,"x_min":41,"x_max":785,"o":"m 785 212 q 730 0 760 103 l 41 0 l 41 31 l 125 31 q 161 60 135 31 q 184 153 184 86 l 184 705 q 125 827 184 799 l 56 827 l 56 857 l 694 857 l 710 665 l 672 665 q 626 777 654 748 q 503 814 590 814 l 328 814 q 306 792 306 814 l 306 472 l 454 472 q 563 486 541 472 q 598 578 590 504 l 635 578 l 635 316 l 598 316 q 563 408 591 390 q 454 423 541 423 l 306 423 l 306 68 q 328 46 306 46 l 604 46 q 640 59 615 46 q 675 82 665 73 q 745 212 711 116 l 785 212 z "},"f":{"ha":682,"x_min":57,"x_max":706,"o":"m 706 665 l 669 661 q 609 787 648 760 q 456 814 571 814 l 328 814 q 308 792 308 814 l 308 458 l 467 458 q 576 472 554 458 q 611 563 604 490 l 647 563 l 647 303 l 611 303 q 576 395 604 378 q 467 409 555 409 l 308 409 l 308 191 q 328 65 308 91 q 459 31 355 33 l 459 0 l 57 0 l 57 31 q 172 73 149 33 q 185 191 185 96 l 185 857 l 690 857 l 706 665 z "},"g":{"ha":953,"x_min":62,"x_max":989,"o":"m 989 353 q 916 330 932 347 q 903 153 903 315 q 911 33 903 74 q 593 -20 697 -20 q 221 98 372 -20 q 62 419 62 222 q 220 754 62 626 q 602 878 371 878 q 881 844 767 878 q 904 638 886 775 l 869 635 q 775 788 842 743 q 584 833 708 833 q 207 437 207 833 q 296 160 207 286 q 610 24 392 24 q 772 64 748 24 q 781 125 781 77 l 781 382 l 989 382 l 989 353 z "},"h":{"ha":1000,"x_min":47,"x_max":1066,"o":"m 1066 0 l 812 0 l 812 426 l 306 426 l 306 191 q 321 74 306 100 q 437 31 346 33 l 437 0 l 184 0 l 184 666 q 169 789 184 766 q 47 827 146 825 l 47 857 l 306 857 l 306 479 l 812 479 l 812 666 q 808 755 812 732 q 755 821 796 811 q 684 827 733 826 l 684 857 l 935 857 l 935 191 q 949 72 935 96 q 1066 31 973 33 l 1066 0 z "},"i":{"ha":408,"x_min":53,"x_max":437,"o":"m 437 0 l 184 0 l 184 666 q 169 789 184 766 q 53 827 146 825 l 53 857 l 306 857 l 306 191 q 321 74 306 100 q 437 31 346 33 l 437 0 z "},"j":{"ha":387,"x_min":32,"x_max":323,"o":"m 323 200 q 302 23 323 86 q 194 -119 273 -61 q 47 -186 124 -169 l 32 -156 q 184 7 161 -105 q 200 237 200 90 l 200 666 q 184 790 200 767 q 62 827 161 825 l 62 857 l 323 857 l 323 200 z "},"k":{"ha":978,"x_min":50,"x_max":1003,"o":"m 1003 857 l 984 827 q 820 808 864 825 q 425 486 743 781 q 636 264 600 302 q 854 64 798 100 q 951 31 901 35 l 951 0 l 735 0 q 306 441 545 201 l 306 191 q 323 70 306 95 q 444 31 347 33 l 444 0 l 184 0 l 184 666 q 170 788 184 765 q 50 827 146 825 l 50 857 l 306 857 l 306 444 q 507 623 361 486 q 671 802 671 778 q 576 827 671 819 l 576 857 l 1003 857 z "},"l":{"ha":808,"x_min":50,"x_max":758,"o":"m 758 208 q 707 0 736 103 l 50 0 l 50 31 q 169 71 145 33 q 184 191 184 94 l 184 857 l 444 857 l 444 827 q 322 788 347 826 q 306 666 306 764 l 306 190 q 326 74 306 94 q 439 46 343 55 q 479 44 467 44 q 644 77 599 44 q 722 212 684 106 l 758 208 z "},"m":{"ha":1187,"x_min":32,"x_max":1240,"o":"m 1240 827 q 1128 800 1151 826 q 1107 695 1107 778 q 1116 348 1107 558 q 1129 0 1122 174 l 872 0 l 872 31 q 985 65 964 34 q 998 176 998 85 q 992 723 998 182 l 985 723 l 629 15 l 592 15 l 255 705 l 252 705 q 234 182 234 241 q 252 66 234 90 q 374 31 275 38 l 374 0 l 32 0 l 32 31 q 121 50 92 35 q 155 99 146 64 q 180 350 170 172 l 205 857 l 299 857 l 652 178 l 999 857 l 1240 857 l 1240 827 z "},"n":{"ha":970,"x_min":28,"x_max":1034,"o":"m 1034 827 q 908 760 922 826 q 897 508 897 704 l 897 -9 l 859 -9 l 226 686 l 223 686 l 223 332 q 234 99 223 144 q 275 50 242 67 q 377 31 308 33 l 377 0 l 28 0 l 28 31 q 153 99 141 31 q 165 350 165 163 l 165 857 l 222 857 l 836 193 l 838 193 l 838 857 l 1034 857 l 1034 827 z "},"o":{"ha":1086,"x_min":62,"x_max":1024,"o":"m 1024 441 q 889 113 1024 242 q 534 -20 752 -20 q 194 107 328 -20 q 62 419 62 232 q 204 746 62 614 q 559 878 345 878 q 896 751 764 878 q 1024 441 1024 627 m 882 381 q 522 833 882 833 q 277 713 361 833 q 204 458 204 611 q 290 168 204 290 q 565 24 389 24 q 807 136 721 24 q 882 381 882 234 z "},"p":{"ha":711,"x_min":50,"x_max":761,"o":"m 761 622 q 677 439 761 514 q 477 356 597 368 q 411 354 422 351 l 303 379 l 303 191 q 326 66 303 92 q 456 31 352 33 l 456 0 l 50 0 l 50 31 q 166 71 143 33 q 181 191 181 95 l 181 857 l 426 857 q 761 622 761 857 m 624 617 q 391 819 624 819 l 328 819 q 311 810 319 819 q 303 792 303 801 l 303 418 q 413 403 338 403 q 573 465 518 403 q 624 617 624 521 z "},"q":{"ha":1115,"x_min":62,"x_max":1053,"o":"m 1053 -195 l 735 -146 l 505 -19 q 184 117 307 -5 q 62 419 62 239 q 204 746 62 614 q 559 878 345 878 q 895 751 764 878 q 1024 441 1024 627 q 935 165 1024 283 q 678 -1 841 41 l 1053 -195 m 882 392 q 522 833 882 833 q 276 713 361 833 q 204 458 204 611 q 272 193 204 309 q 498 29 351 56 l 585 50 l 623 29 q 882 392 882 71 z "},"r":{"ha":951,"x_min":50,"x_max":910,"o":"m 910 0 l 694 0 l 448 379 l 306 378 l 306 191 q 321 74 306 100 q 437 31 346 33 l 437 0 l 50 0 l 50 31 q 169 71 145 33 q 184 191 184 94 l 184 857 l 426 857 q 753 644 753 857 q 559 413 753 480 l 788 83 q 840 42 810 52 q 910 31 843 41 l 910 0 m 621 625 q 562 768 621 718 q 401 819 503 819 l 328 819 q 306 792 306 819 l 306 416 l 391 416 q 562 470 502 416 q 621 625 621 525 z "},"s":{"ha":617,"x_min":58,"x_max":643,"o":"m 643 245 q 546 51 643 125 q 319 -20 454 -20 q 100 28 222 -20 q 58 227 97 44 l 95 232 q 188 91 143 136 q 347 24 255 24 q 528 194 528 24 q 451 336 528 281 q 286 418 430 351 q 127 534 176 471 q 95 635 95 576 q 185 814 95 747 q 395 878 269 878 q 572 846 441 878 q 598 667 581 781 l 561 663 q 363 833 519 833 q 249 793 292 833 q 205 688 205 752 q 319 536 205 593 q 530 440 425 488 q 643 245 643 370 z "},"t":{"ha":798,"x_min":35,"x_max":834,"o":"m 834 663 l 798 659 q 736 786 775 758 q 585 814 698 814 l 487 814 l 487 191 q 509 65 487 91 q 642 31 536 33 l 642 0 l 216 0 l 216 31 q 345 66 319 33 q 365 191 365 91 l 365 814 l 35 814 l 35 857 l 823 857 q 834 663 823 793 z "},"u":{"ha":947,"x_min":39,"x_max":908,"o":"m 908 827 q 783 758 797 826 q 771 649 774 715 q 770 528 769 602 q 771 418 771 416 q 390 -20 771 -20 q 268 -4 334 -20 q 82 127 136 28 q 39 344 39 206 l 39 857 l 290 857 l 290 827 q 175 785 197 826 q 161 666 161 762 l 161 391 q 433 44 161 44 q 679 205 618 44 q 713 507 713 296 q 701 759 713 705 q 665 810 692 795 q 558 827 634 826 l 558 857 l 908 857 l 908 827 z "},"v":{"ha":1002,"x_min":35,"x_max":1073,"o":"m 1073 857 l 1052 827 q 891 801 922 825 q 514 -7 846 766 l 471 -7 l 35 1012 l 237 857 q 532 157 319 656 q 780 782 780 746 q 736 823 780 814 q 669 857 701 831 l 1073 857 z "},"w":{"ha":1373,"x_min":35,"x_max":1461,"o":"m 1461 857 l 1440 827 q 1294 806 1326 824 q 1222 691 1254 783 l 980 -7 l 941 -7 l 678 637 l 437 -7 l 397 -7 l 35 1012 l 237 857 l 455 182 l 458 182 l 692 844 l 726 844 l 989 184 l 994 184 q 1173 781 1173 707 q 1132 822 1173 813 q 1067 857 1106 828 l 1461 857 z "},"x":{"ha":982,"x_min":0,"x_max":954,"o":"m 954 0 l 570 0 l 570 31 q 665 61 665 41 q 446 385 665 73 q 332 216 399 319 q 241 60 241 79 q 281 34 241 40 q 338 31 284 33 l 338 0 l 7 0 l 7 31 q 102 48 67 34 q 166 96 137 62 q 418 428 205 141 l 0 1012 q 237 857 79 961 q 488 525 248 850 q 667 800 667 774 q 568 827 667 819 l 568 857 l 894 857 l 894 827 q 789 806 823 823 q 516 483 739 780 q 764 140 600 370 q 840 58 807 78 q 954 31 880 34 l 954 0 z "},"y":{"ha":810,"x_min":0,"x_max":867,"o":"m 867 827 q 771 802 800 823 q 641 625 741 779 q 517 426 564 506 q 493 355 493 382 l 493 191 q 513 66 493 92 q 644 31 540 33 l 644 0 l 224 0 l 224 31 q 352 66 326 33 q 370 191 370 92 l 370 341 q 366 375 370 365 q 338 420 364 380 q 0 1012 229 593 l 201 857 q 467 433 313 673 q 661 794 661 753 q 612 821 661 812 q 547 827 580 824 l 547 857 l 867 857 l 867 827 z "},"z":{"ha":854,"x_min":33,"x_max":854,"o":"m 854 212 q 802 0 826 74 l 41 0 l 33 15 l 654 814 l 388 814 q 218 788 258 814 q 146 652 176 760 l 110 652 q 123 857 121 787 l 814 857 l 821 844 l 205 52 l 626 52 q 682 62 647 52 q 732 84 717 73 q 818 219 779 121 l 854 212 z "},"{":{"ha":391,"x_min":113,"x_max":418,"o":"m 418 -222 q 221 -50 221 -222 q 232 85 221 -5 q 242 220 242 176 q 213 311 242 285 q 113 341 184 338 l 113 372 q 212 404 184 380 q 242 495 242 431 q 232 630 242 540 q 221 765 221 720 q 413 937 221 939 l 418 937 l 418 907 q 302 791 302 890 q 312 656 302 730 q 330 512 330 525 q 213 360 330 389 l 213 355 q 330 201 330 327 q 316 66 330 158 q 302 -76 302 -26 q 418 -191 302 -174 l 418 -222 z "},"|":{"ha":299,"x_min":140,"x_max":227,"o":"m 227 -330 l 140 -330 l 140 989 l 227 989 l 227 -330 z "},"}":{"ha":399,"x_min":121,"x_max":427,"o":"m 427 341 q 328 310 358 338 q 298 220 298 282 q 308 81 298 174 q 317 -58 317 -12 q 127 -222 317 -223 l 121 -222 l 121 -191 q 238 -77 238 -172 q 218 131 238 1 q 210 201 210 189 q 327 355 210 327 l 327 360 q 210 512 210 391 q 218 585 210 527 q 238 791 238 715 q 121 907 238 895 l 121 937 q 317 773 317 937 q 308 634 317 726 q 298 495 298 541 q 329 406 298 433 q 427 372 358 380 l 427 341 z "},"~":{"ha":771,"x_min":77,"x_max":823,"o":"m 823 378 q 610 237 741 237 q 446 282 549 237 q 284 328 343 328 q 123 220 200 328 l 77 256 q 308 394 174 394 q 467 350 369 394 q 619 306 566 306 q 779 412 705 306 l 823 378 z "},"¡":{"ha":484,"x_min":0,"x_max":0,"o":""},"¢":{"ha":484,"x_min":0,"x_max":0,"o":""},"£":{"ha":484,"x_min":0,"x_max":0,"o":""},"¤":{"ha":484,"x_min":0,"x_max":0,"o":""},"¥":{"ha":484,"x_min":0,"x_max":0,"o":""},"¦":{"ha":484,"x_min":0,"x_max":0,"o":""},"§":{"ha":484,"x_min":0,"x_max":0,"o":""},"¨":{"ha":484,"x_min":0,"x_max":0,"o":""},"©":{"ha":908,"x_min":73,"x_max":951,"o":"m 951 409 q 824 123 951 241 q 512 5 697 5 q 201 124 329 5 q 73 409 73 243 q 199 696 73 578 q 512 814 325 814 q 826 697 701 814 q 951 409 951 580 m 884 410 q 783 664 884 563 q 512 769 679 769 q 241 663 347 769 q 140 410 140 562 q 243 157 140 261 q 512 50 349 50 q 783 157 677 50 q 884 410 884 260 m 736 322 q 701 203 718 254 q 545 178 604 178 q 350 239 430 178 q 266 406 266 303 q 348 578 266 513 q 545 641 427 641 q 704 617 659 641 q 721 498 713 574 l 694 497 q 543 608 652 608 q 407 550 455 608 q 365 416 365 498 q 410 277 365 336 q 545 212 460 212 q 709 326 665 212 l 736 322 z "},"ª":{"ha":484,"x_min":0,"x_max":0,"o":""},"«":{"ha":484,"x_min":0,"x_max":0,"o":""},"¬":{"ha":484,"x_min":0,"x_max":0,"o":""},"®":{"ha":686,"x_min":67,"x_max":735,"o":"m 735 573 q 638 357 735 446 q 401 269 541 269 q 164 358 262 269 q 67 573 67 447 q 163 789 67 701 q 401 878 260 878 q 639 790 543 878 q 735 573 735 702 m 676 574 q 600 760 676 685 q 401 839 522 839 q 201 760 281 839 q 125 574 125 684 q 203 389 125 467 q 401 310 283 310 q 600 389 519 310 q 676 574 676 466 m 578 404 l 493 404 l 396 553 l 340 552 l 340 473 q 347 431 340 440 q 391 416 357 417 l 391 404 l 239 404 l 239 416 q 286 431 277 417 q 292 479 292 441 l 292 741 l 387 741 q 515 656 515 741 q 440 566 515 593 l 530 437 q 578 416 541 421 l 578 404 m 464 650 q 377 726 464 726 q 347 724 359 726 l 341 720 q 340 709 340 715 l 340 567 l 373 567 q 464 650 464 567 z "},"°":{"ha":458,"x_min":48,"x_max":491,"o":"m 491 517 q 431 374 491 432 q 275 315 370 315 q 119 368 186 315 q 48 504 48 424 q 112 649 48 591 q 271 707 175 707 q 428 654 365 707 q 491 517 491 602 m 387 494 q 361 609 387 562 q 260 670 328 670 q 178 621 208 670 q 153 530 153 581 q 181 416 153 467 q 279 353 216 353 q 387 494 387 353 z "},"±":{"ha":484,"x_min":0,"x_max":0,"o":""},"´":{"ha":398,"x_min":94,"x_max":352,"o":"m 352 825 q 332 797 352 812 l 118 629 l 94 642 l 262 850 q 286 868 277 868 q 326 852 300 868 q 352 825 352 837 z "},"¶":{"ha":484,"x_min":0,"x_max":0,"o":""},"¸":{"ha":484,"x_min":0,"x_max":0,"o":""},"º":{"ha":484,"x_min":0,"x_max":0,"o":""},"»":{"ha":484,"x_min":0,"x_max":0,"o":""},"¼":{"ha":484,"x_min":0,"x_max":0,"o":""},"½":{"ha":484,"x_min":0,"x_max":0,"o":""},"¾":{"ha":484,"x_min":0,"x_max":0,"o":""},"¿":{"ha":484,"x_min":0,"x_max":0,"o":""},"À":{"ha":484,"x_min":0,"x_max":0,"o":""},"Á":{"ha":911,"x_min":0,"x_max":941,"o":"m 672 1007 q 649 988 672 996 l 366 900 l 350 920 l 589 1051 q 616 1060 604 1060 q 651 1039 631 1060 q 672 1007 672 1019 m 941 0 l 587 0 l 587 31 q 686 66 686 25 q 586 326 686 95 l 290 326 q 205 79 205 118 q 312 31 205 26 l 312 0 l 0 0 l 0 31 q 106 68 74 35 q 157 165 124 87 l 458 865 l 491 878 q 785 157 536 770 q 838 65 812 89 q 941 31 871 33 l 941 0 m 568 376 l 439 701 l 436 701 l 309 376 l 568 376 z "},"Â":{"ha":484,"x_min":0,"x_max":0,"o":""},"Ã":{"ha":484,"x_min":0,"x_max":0,"o":""},"Ä":{"ha":484,"x_min":0,"x_max":0,"o":""},"Å":{"ha":484,"x_min":0,"x_max":0,"o":""},"Ç":{"ha":484,"x_min":0,"x_max":0,"o":""},"È":{"ha":484,"x_min":0,"x_max":0,"o":""},"É":{"ha":797,"x_min":41,"x_max":785,"o":"m 591 1008 q 568 988 591 996 l 284 900 l 269 920 l 508 1051 q 536 1060 523 1060 q 570 1039 550 1060 q 591 1008 591 1019 m 785 212 q 730 0 760 103 l 41 0 l 41 31 l 125 31 q 161 60 135 31 q 184 153 184 86 l 184 705 q 125 827 184 799 l 56 827 l 56 857 l 694 857 l 710 665 l 672 665 q 626 777 654 748 q 503 814 590 814 l 328 814 q 306 792 306 814 l 306 472 l 454 472 q 563 486 541 472 q 598 578 590 504 l 635 578 l 635 316 l 598 316 q 563 408 591 390 q 454 423 541 423 l 306 423 l 306 68 q 328 46 306 46 l 604 46 q 640 59 615 46 q 675 82 665 73 q 745 212 711 116 l 785 212 z "},"Ê":{"ha":484,"x_min":0,"x_max":0,"o":""},"Ë":{"ha":484,"x_min":0,"x_max":0,"o":""},"Ì":{"ha":484,"x_min":0,"x_max":0,"o":""},"Í":{"ha":408,"x_min":53,"x_max":437,"o":"m 431 1007 q 408 988 431 996 l 125 900 l 110 920 l 348 1051 q 376 1060 363 1060 q 411 1039 390 1060 q 431 1007 431 1019 m 437 0 l 184 0 l 184 666 q 169 789 184 766 q 53 827 146 825 l 53 857 l 306 857 l 306 191 q 321 74 306 100 q 437 31 346 33 l 437 0 z "},"Î":{"ha":484,"x_min":0,"x_max":0,"o":""},"Ï":{"ha":484,"x_min":0,"x_max":0,"o":""},"Ð":{"ha":484,"x_min":0,"x_max":0,"o":""},"Ñ":{"ha":484,"x_min":0,"x_max":0,"o":""},"Ò":{"ha":484,"x_min":0,"x_max":0,"o":""},"Ó":{"ha":1086,"x_min":62,"x_max":1024,"o":"m 753 1007 q 729 988 753 996 l 446 900 l 430 920 l 669 1051 q 697 1060 685 1060 q 732 1039 711 1060 q 753 1007 753 1018 m 1024 441 q 889 113 1024 242 q 534 -20 752 -20 q 194 107 328 -20 q 62 419 62 232 q 204 746 62 614 q 559 878 345 878 q 896 751 764 878 q 1024 441 1024 627 m 882 381 q 522 833 882 833 q 277 713 361 833 q 204 458 204 611 q 290 168 204 290 q 565 24 389 24 q 807 136 721 24 q 882 381 882 234 z "},"Ô":{"ha":1086,"x_min":0,"x_max":0,"o":""},"Õ":{"ha":484,"x_min":0,"x_max":0,"o":""},"Ö":{"ha":484,"x_min":0,"x_max":0,"o":""},"×":{"ha":484,"x_min":0,"x_max":0,"o":""},"Ø":{"ha":484,"x_min":0,"x_max":0,"o":""},"Ù":{"ha":484,"x_min":0,"x_max":0,"o":""},"Ú":{"ha":947,"x_min":39,"x_max":908,"o":"m 655 1009 q 631 990 655 998 l 349 902 l 332 921 l 572 1053 q 599 1062 587 1062 q 634 1041 614 1062 q 655 1009 655 1020 m 908 827 q 783 758 797 826 q 771 649 774 715 q 770 528 769 602 q 771 418 771 416 q 390 -20 771 -20 q 268 -4 334 -20 q 82 127 136 28 q 39 344 39 206 l 39 857 l 290 857 l 290 827 q 175 785 197 826 q 161 666 161 762 l 161 391 q 433 44 161 44 q 679 205 618 44 q 713 507 713 296 q 701 759 713 705 q 665 810 692 795 q 558 827 634 826 l 558 857 l 908 857 l 908 827 z "},"Û":{"ha":484,"x_min":0,"x_max":0,"o":""},"Ü":{"ha":484,"x_min":0,"x_max":0,"o":""},"Ý":{"ha":810,"x_min":0,"x_max":867,"o":"m 655 1009 q 631 990 655 998 l 349 902 l 332 921 l 572 1053 q 599 1062 587 1062 q 634 1041 614 1062 q 655 1009 655 1020 m 867 827 q 771 802 800 823 q 641 625 741 779 q 517 426 564 506 q 493 355 493 382 l 493 191 q 513 66 493 92 q 644 31 540 33 l 644 0 l 224 0 l 224 31 q 352 66 326 33 q 370 191 370 92 l 370 341 q 366 375 370 365 q 338 420 364 380 q 0 1012 229 593 l 201 857 q 467 433 313 673 q 661 794 661 753 q 612 821 661 812 q 547 827 580 824 l 547 857 l 867 857 l 867 827 z "},"Þ":{"ha":484,"x_min":0,"x_max":0,"o":""},"ß":{"ha":484,"x_min":0,"x_max":0,"o":""},"à":{"ha":484,"x_min":0,"x_max":0,"o":""},"á":{"ha":911,"x_min":0,"x_max":941,"o":"m 672 1007 q 649 988 672 996 l 366 900 l 350 920 l 589 1051 q 616 1060 604 1060 q 651 1039 631 1060 q 672 1007 672 1019 m 941 0 l 587 0 l 587 31 q 686 66 686 25 q 586 326 686 95 l 290 326 q 205 79 205 118 q 312 31 205 26 l 312 0 l 0 0 l 0 31 q 106 68 74 35 q 157 165 124 87 l 458 865 l 491 878 q 785 157 536 770 q 838 65 812 89 q 941 31 871 33 l 941 0 m 568 376 l 439 701 l 436 701 l 309 376 l 568 376 z "},"â":{"ha":484,"x_min":0,"x_max":0,"o":""},"ã":{"ha":484,"x_min":0,"x_max":0,"o":""},"ä":{"ha":484,"x_min":0,"x_max":0,"o":""},"å":{"ha":484,"x_min":0,"x_max":0,"o":""},"æ":{"ha":484,"x_min":0,"x_max":0,"o":""},"ç":{"ha":484,"x_min":0,"x_max":0,"o":""},"è":{"ha":484,"x_min":0,"x_max":0,"o":""},"é":{"ha":797,"x_min":41,"x_max":785,"o":"m 591 1008 q 568 988 591 996 l 284 900 l 269 920 l 508 1051 q 536 1060 523 1060 q 570 1039 550 1060 q 591 1008 591 1019 m 785 212 q 730 0 760 103 l 41 0 l 41 31 l 125 31 q 161 60 135 31 q 184 153 184 86 l 184 705 q 125 827 184 799 l 56 827 l 56 857 l 694 857 l 710 665 l 672 665 q 626 777 654 748 q 503 814 590 814 l 328 814 q 306 792 306 814 l 306 472 l 454 472 q 563 486 541 472 q 598 578 590 504 l 635 578 l 635 316 l 598 316 q 563 408 591 390 q 454 423 541 423 l 306 423 l 306 68 q 328 46 306 46 l 604 46 q 640 59 615 46 q 675 82 665 73 q 745 212 711 116 l 785 212 z "},"ê":{"ha":484,"x_min":0,"x_max":0,"o":""},"ë":{"ha":484,"x_min":0,"x_max":0,"o":""},"ì":{"ha":484,"x_min":0,"x_max":0,"o":""},"í":{"ha":408,"x_min":53,"x_max":437,"o":"m 431 1007 q 408 988 431 996 l 125 900 l 110 920 l 348 1051 q 376 1060 363 1060 q 411 1039 390 1060 q 431 1007 431 1019 m 437 0 l 184 0 l 184 666 q 169 789 184 766 q 53 827 146 825 l 53 857 l 306 857 l 306 191 q 321 74 306 100 q 437 31 346 33 l 437 0 z "},"î":{"ha":484,"x_min":0,"x_max":0,"o":""},"ï":{"ha":484,"x_min":0,"x_max":0,"o":""},"ð":{"ha":484,"x_min":0,"x_max":0,"o":""},"ñ":{"ha":484,"x_min":0,"x_max":0,"o":""},"ò":{"ha":484,"x_min":0,"x_max":0,"o":""},"ó":{"ha":1086,"x_min":62,"x_max":1024,"o":"m 753 1007 q 729 988 753 996 l 446 900 l 430 920 l 669 1051 q 697 1060 685 1060 q 732 1039 711 1060 q 753 1007 753 1018 m 1024 441 q 889 113 1024 242 q 534 -20 752 -20 q 194 107 328 -20 q 62 419 62 232 q 204 746 62 614 q 559 878 345 878 q 896 751 764 878 q 1024 441 1024 627 m 882 381 q 522 833 882 833 q 277 713 361 833 q 204 458 204 611 q 290 168 204 290 q 565 24 389 24 q 807 136 721 24 q 882 381 882 234 z "},"ô":{"ha":484,"x_min":0,"x_max":0,"o":""},"õ":{"ha":484,"x_min":0,"x_max":0,"o":""},"ö":{"ha":484,"x_min":0,"x_max":0,"o":""},"÷":{"ha":484,"x_min":0,"x_max":0,"o":""},"ø":{"ha":484,"x_min":0,"x_max":0,"o":""},"ù":{"ha":484,"x_min":0,"x_max":0,"o":""},"ú":{"ha":947,"x_min":39,"x_max":908,"o":"m 655 1009 q 631 990 655 998 l 349 902 l 332 921 l 572 1053 q 599 1062 587 1062 q 634 1041 614 1062 q 655 1009 655 1020 m 908 827 q 783 758 797 826 q 771 649 774 715 q 770 528 769 602 q 771 418 771 416 q 390 -20 771 -20 q 268 -4 334 -20 q 82 127 136 28 q 39 344 39 206 l 39 857 l 290 857 l 290 827 q 175 785 197 826 q 161 666 161 762 l 161 391 q 433 44 161 44 q 679 205 618 44 q 713 507 713 296 q 701 759 713 705 q 665 810 692 795 q 558 827 634 826 l 558 857 l 908 857 l 908 827 z "},"û":{"ha":484,"x_min":0,"x_max":0,"o":""},"ü":{"ha":484,"x_min":0,"x_max":0,"o":""},"ý":{"ha":810,"x_min":0,"x_max":867,"o":"m 655 1009 q 631 990 655 998 l 349 902 l 332 921 l 572 1053 q 599 1062 587 1062 q 634 1041 614 1062 q 655 1009 655 1020 m 867 827 q 771 802 800 823 q 641 625 741 779 q 517 426 564 506 q 493 355 493 382 l 493 191 q 513 66 493 92 q 644 31 540 33 l 644 0 l 224 0 l 224 31 q 352 66 326 33 q 370 191 370 92 l 370 341 q 366 375 370 365 q 338 420 364 380 q 0 1012 229 593 l 201 857 q 467 433 313 673 q 661 794 661 753 q 612 821 661 812 q 547 827 580 824 l 547 857 l 867 857 l 867 827 z "},"þ":{"ha":484,"x_min":0,"x_max":0,"o":""},"ÿ":{"ha":484,"x_min":0,"x_max":0,"o":""},"Ā":{"ha":484,"x_min":0,"x_max":0,"o":""},"ā":{"ha":484,"x_min":0,"x_max":0,"o":""},"Ă":{"ha":484,"x_min":0,"x_max":0,"o":""},"ă":{"ha":484,"x_min":0,"x_max":0,"o":""},"Ą":{"ha":484,"x_min":0,"x_max":0,"o":""},"ą":{"ha":484,"x_min":0,"x_max":0,"o":""},"Ć":{"ha":484,"x_min":0,"x_max":0,"o":""},"ć":{"ha":484,"x_min":0,"x_max":0,"o":""},"Ĉ":{"ha":484,"x_min":0,"x_max":0,"o":""},"ĉ":{"ha":484,"x_min":0,"x_max":0,"o":""},"Č":{"ha":894,"x_min":62,"x_max":935,"o":"m 759 1050 l 576 907 l 551 907 l 370 1050 l 387 1072 l 566 987 l 742 1072 l 759 1050 m 935 229 q 860 18 913 157 q 586 -20 673 -20 q 186 120 317 -20 q 62 417 62 252 q 224 755 62 627 q 614 878 379 878 q 877 844 741 878 q 903 644 892 741 l 866 641 q 774 789 837 744 q 593 833 711 833 q 303 724 406 833 q 208 447 208 621 q 297 155 208 270 q 587 24 399 24 q 781 80 704 24 q 898 233 848 130 l 935 229 z "},"č":{"ha":894,"x_min":62,"x_max":935,"o":"m 759 1050 l 576 907 l 551 907 l 370 1050 l 387 1072 l 566 987 l 742 1072 l 759 1050 m 935 229 q 860 18 913 157 q 586 -20 673 -20 q 186 120 317 -20 q 62 417 62 252 q 224 755 62 627 q 614 878 379 878 q 877 844 741 878 q 903 644 892 741 l 866 641 q 774 789 837 744 q 593 833 711 833 q 303 724 406 833 q 208 447 208 621 q 297 155 208 270 q 587 24 399 24 q 781 80 704 24 q 898 233 848 130 l 935 229 z "},"Ď":{"ha":954,"x_min":47,"x_max":1000,"o":"m 740 1050 l 557 907 l 531 907 l 351 1050 l 368 1072 l 546 987 l 723 1072 l 740 1050 m 1000 467 q 817 109 1000 231 q 382 0 654 0 l 47 0 l 47 31 q 168 69 144 33 q 184 191 184 93 l 184 857 l 467 857 q 840 771 701 857 q 1000 467 1000 671 m 859 433 q 754 728 859 637 q 425 819 650 819 l 328 819 q 306 792 306 819 l 306 68 q 328 46 306 46 q 709 123 585 46 q 859 433 859 214 z "},"ď":{"ha":954,"x_min":47,"x_max":1000,"o":"m 740 1050 l 557 907 l 531 907 l 351 1050 l 368 1072 l 546 987 l 723 1072 l 740 1050 m 1000 467 q 817 109 1000 231 q 382 0 654 0 l 47 0 l 47 31 q 168 69 144 33 q 184 191 184 93 l 184 857 l 467 857 q 840 771 701 857 q 1000 467 1000 671 m 859 433 q 754 728 859 637 q 425 819 650 819 l 328 819 q 306 792 306 819 l 306 68 q 328 46 306 46 q 709 123 585 46 q 859 433 859 214 z "},"đ":{"ha":484,"x_min":0,"x_max":0,"o":""},"Ē":{"ha":484,"x_min":0,"x_max":0,"o":""},"ē":{"ha":484,"x_min":0,"x_max":0,"o":""},"Ĕ":{"ha":484,"x_min":0,"x_max":0,"o":""},"ĕ":{"ha":484,"x_min":0,"x_max":0,"o":""},"Ę":{"ha":484,"x_min":0,"x_max":0,"o":""},"ę":{"ha":484,"x_min":0,"x_max":0,"o":""},"Ě":{"ha":797,"x_min":41,"x_max":785,"o":"m 655 1050 l 473 907 l 446 907 l 267 1050 l 283 1072 l 461 987 l 638 1072 l 655 1050 m 785 212 q 730 0 760 103 l 41 0 l 41 31 l 125 31 q 161 60 135 31 q 184 153 184 86 l 184 705 q 125 827 184 799 l 56 827 l 56 857 l 694 857 l 710 665 l 672 665 q 626 777 654 748 q 503 814 590 814 l 328 814 q 306 792 306 814 l 306 472 l 454 472 q 563 486 541 472 q 598 578 590 504 l 635 578 l 635 316 l 598 316 q 563 408 591 390 q 454 423 541 423 l 306 423 l 306 68 q 328 46 306 46 l 604 46 q 640 59 615 46 q 675 82 665 73 q 745 212 711 116 l 785 212 z "},"ě":{"ha":797,"x_min":41,"x_max":785,"o":"m 655 1050 l 473 907 l 446 907 l 267 1050 l 283 1072 l 461 987 l 638 1072 l 655 1050 m 785 212 q 730 0 760 103 l 41 0 l 41 31 l 125 31 q 161 60 135 31 q 184 153 184 86 l 184 705 q 125 827 184 799 l 56 827 l 56 857 l 694 857 l 710 665 l 672 665 q 626 777 654 748 q 503 814 590 814 l 328 814 q 306 792 306 814 l 306 472 l 454 472 q 563 486 541 472 q 598 578 590 504 l 635 578 l 635 316 l 598 316 q 563 408 591 390 q 454 423 541 423 l 306 423 l 306 68 q 328 46 306 46 l 604 46 q 640 59 615 46 q 675 82 665 73 q 745 212 711 116 l 785 212 z "},"Ĝ":{"ha":484,"x_min":0,"x_max":0,"o":""},"ĝ":{"ha":484,"x_min":0,"x_max":0,"o":""},"Ğ":{"ha":484,"x_min":0,"x_max":0,"o":""},"ğ":{"ha":484,"x_min":0,"x_max":0,"o":""},"Ĥ":{"ha":484,"x_min":0,"x_max":0,"o":""},"ĥ":{"ha":484,"x_min":0,"x_max":0,"o":""},"Ħ":{"ha":484,"x_min":0,"x_max":0,"o":""},"ħ":{"ha":484,"x_min":0,"x_max":0,"o":""},"Ĩ":{"ha":484,"x_min":0,"x_max":0,"o":""},"ĩ":{"ha":484,"x_min":0,"x_max":0,"o":""},"Ī":{"ha":484,"x_min":0,"x_max":0,"o":""},"ī":{"ha":484,"x_min":0,"x_max":0,"o":""},"Ĭ":{"ha":484,"x_min":0,"x_max":0,"o":""},"ĭ":{"ha":484,"x_min":0,"x_max":0,"o":""},"Į":{"ha":484,"x_min":0,"x_max":0,"o":""},"į":{"ha":484,"x_min":0,"x_max":0,"o":""},"ı":{"ha":484,"x_min":0,"x_max":0,"o":""},"Ĳ":{"ha":484,"x_min":0,"x_max":0,"o":""},"ĳ":{"ha":484,"x_min":0,"x_max":0,"o":""},"Ĵ":{"ha":484,"x_min":0,"x_max":0,"o":""},"ĵ":{"ha":484,"x_min":0,"x_max":0,"o":""},"ĸ":{"ha":484,"x_min":0,"x_max":0,"o":""},"Ĺ":{"ha":484,"x_min":0,"x_max":0,"o":""},"ĺ":{"ha":484,"x_min":0,"x_max":0,"o":""},"Ľ":{"ha":484,"x_min":0,"x_max":0,"o":""},"ľ":{"ha":484,"x_min":0,"x_max":0,"o":""},"Ŀ":{"ha":484,"x_min":0,"x_max":0,"o":""},"ŀ":{"ha":484,"x_min":0,"x_max":0,"o":""},"Ł":{"ha":484,"x_min":0,"x_max":0,"o":""},"ł":{"ha":484,"x_min":0,"x_max":0,"o":""},"Ń":{"ha":484,"x_min":0,"x_max":0,"o":""},"ń":{"ha":484,"x_min":0,"x_max":0,"o":""},"Ň":{"ha":970,"x_min":28,"x_max":1034,"o":"m 759 1046 l 576 902 l 551 902 l 370 1046 l 387 1067 l 566 983 l 742 1067 l 759 1046 m 1034 827 q 908 760 922 826 q 897 508 897 704 l 897 -9 l 859 -9 l 226 686 l 223 686 l 223 332 q 234 99 223 144 q 275 50 242 67 q 377 31 308 33 l 377 0 l 28 0 l 28 31 q 153 99 141 31 q 165 350 165 163 l 165 857 l 222 857 l 836 193 l 838 193 l 838 857 l 1034 857 l 1034 827 z "},"ň":{"ha":970,"x_min":28,"x_max":1034,"o":"m 759 1046 l 576 902 l 551 902 l 370 1046 l 387 1067 l 566 983 l 742 1067 l 759 1046 m 1034 827 q 908 760 922 826 q 897 508 897 704 l 897 -9 l 859 -9 l 226 686 l 223 686 l 223 332 q 234 99 223 144 q 275 50 242 67 q 377 31 308 33 l 377 0 l 28 0 l 28 31 q 153 99 141 31 q 165 350 165 163 l 165 857 l 222 857 l 836 193 l 838 193 l 838 857 l 1034 857 l 1034 827 z "},"ŉ":{"ha":484,"x_min":0,"x_max":0,"o":""},"Ŋ":{"ha":484,"x_min":0,"x_max":0,"o":""},"ŋ":{"ha":484,"x_min":0,"x_max":0,"o":""},"Ō":{"ha":484,"x_min":0,"x_max":0,"o":""},"ō":{"ha":484,"x_min":0,"x_max":0,"o":""},"Ŏ":{"ha":484,"x_min":0,"x_max":0,"o":""},"ŏ":{"ha":484,"x_min":0,"x_max":0,"o":""},"œ":{"ha":484,"x_min":0,"x_max":0,"o":""},"Ŕ":{"ha":484,"x_min":0,"x_max":0,"o":""},"ŕ":{"ha":484,"x_min":0,"x_max":0,"o":""},"Ř":{"ha":951,"x_min":50,"x_max":910,"o":"m 655 1050 l 473 907 l 446 907 l 267 1050 l 283 1072 l 461 987 l 638 1072 l 655 1050 m 910 0 l 694 0 l 448 379 l 306 378 l 306 191 q 321 74 306 100 q 437 31 346 33 l 437 0 l 50 0 l 50 31 q 169 71 145 33 q 184 191 184 94 l 184 857 l 426 857 q 753 644 753 857 q 559 413 753 480 l 788 83 q 840 42 810 52 q 910 31 843 41 l 910 0 m 621 625 q 562 768 621 718 q 401 819 503 819 l 328 819 q 306 792 306 819 l 306 416 l 391 416 q 562 470 502 416 q 621 625 621 525 z "},"ř":{"ha":951,"x_min":50,"x_max":910,"o":"m 655 1050 l 473 907 l 446 907 l 267 1050 l 283 1072 l 461 987 l 638 1072 l 655 1050 m 910 0 l 694 0 l 448 379 l 306 378 l 306 191 q 321 74 306 100 q 437 31 346 33 l 437 0 l 50 0 l 50 31 q 169 71 145 33 q 184 191 184 94 l 184 857 l 426 857 q 753 644 753 857 q 559 413 753 480 l 788 83 q 840 42 810 52 q 910 31 843 41 l 910 0 m 621 625 q 562 768 621 718 q 401 819 503 819 l 328 819 q 306 792 306 819 l 306 416 l 391 416 q 562 470 502 416 q 621 625 621 525 z "},"Ś":{"ha":484,"x_min":0,"x_max":0,"o":""},"ś":{"ha":484,"x_min":0,"x_max":0,"o":""},"Ŝ":{"ha":484,"x_min":0,"x_max":0,"o":""},"ŝ":{"ha":484,"x_min":0,"x_max":0,"o":""},"Ş":{"ha":484,"x_min":0,"x_max":0,"o":""},"ş":{"ha":484,"x_min":0,"x_max":0,"o":""},"Š":{"ha":617,"x_min":58,"x_max":643,"o":"m 557 1050 l 374 907 l 348 907 l 168 1050 l 185 1072 l 363 987 l 540 1072 l 557 1050 m 643 245 q 546 51 643 125 q 319 -20 454 -20 q 100 28 222 -20 q 58 227 97 44 l 95 232 q 188 91 143 136 q 347 24 255 24 q 528 194 528 24 q 451 336 528 281 q 286 418 430 351 q 127 534 176 471 q 95 635 95 576 q 185 814 95 747 q 395 878 269 878 q 572 846 441 878 q 598 667 581 781 l 561 663 q 363 833 519 833 q 249 793 292 833 q 205 688 205 752 q 319 536 205 593 q 530 440 425 488 q 643 245 643 370 z "},"š":{"ha":617,"x_min":58,"x_max":643,"o":"m 557 1050 l 374 907 l 348 907 l 168 1050 l 185 1072 l 363 987 l 540 1072 l 557 1050 m 643 245 q 546 51 643 125 q 319 -20 454 -20 q 100 28 222 -20 q 58 227 97 44 l 95 232 q 188 91 143 136 q 347 24 255 24 q 528 194 528 24 q 451 336 528 281 q 286 418 430 351 q 127 534 176 471 q 95 635 95 576 q 185 814 95 747 q 395 878 269 878 q 572 846 441 878 q 598 667 581 781 l 561 663 q 363 833 519 833 q 249 793 292 833 q 205 688 205 752 q 319 536 205 593 q 530 440 425 488 q 643 245 643 370 z "},"Ť":{"ha":798,"x_min":35,"x_max":834,"o":"m 627 1050 l 444 907 l 418 907 l 238 1050 l 255 1072 l 433 987 l 610 1072 l 627 1050 m 834 663 l 798 659 q 736 786 775 758 q 585 814 698 814 l 487 814 l 487 191 q 509 65 487 91 q 642 31 536 33 l 642 0 l 216 0 l 216 31 q 345 66 319 33 q 365 191 365 91 l 365 814 l 35 814 l 35 857 l 823 857 q 834 663 823 793 z "},"ť":{"ha":798,"x_min":35,"x_max":834,"o":"m 627 1050 l 444 907 l 418 907 l 238 1050 l 255 1072 l 433 987 l 610 1072 l 627 1050 m 834 663 l 798 659 q 736 786 775 758 q 585 814 698 814 l 487 814 l 487 191 q 509 65 487 91 q 642 31 536 33 l 642 0 l 216 0 l 216 31 q 345 66 319 33 q 365 191 365 91 l 365 814 l 35 814 l 35 857 l 823 857 q 834 663 823 793 z "},"Ŧ":{"ha":484,"x_min":0,"x_max":0,"o":""},"ŧ":{"ha":484,"x_min":0,"x_max":0,"o":""},"Ũ":{"ha":484,"x_min":0,"x_max":0,"o":""},"ũ":{"ha":484,"x_min":0,"x_max":0,"o":""},"Ū":{"ha":484,"x_min":0,"x_max":0,"o":""},"ū":{"ha":484,"x_min":0,"x_max":0,"o":""},"Ŭ":{"ha":484,"x_min":0,"x_max":0,"o":""},"ŭ":{"ha":484,"x_min":0,"x_max":0,"o":""},"Ů":{"ha":947,"x_min":39,"x_max":908,"o":"m 570 1013 q 527 924 570 959 q 425 888 485 888 q 325 925 368 888 q 281 1013 281 962 q 324 1100 281 1065 q 425 1134 366 1134 q 528 1101 487 1134 q 570 1013 570 1068 m 908 827 q 783 758 797 826 q 771 649 774 715 q 770 528 769 602 q 771 418 771 416 q 390 -20 771 -20 q 268 -4 334 -20 q 82 127 136 28 q 39 344 39 206 l 39 857 l 290 857 l 290 827 q 175 785 197 826 q 161 666 161 762 l 161 391 q 433 44 161 44 q 679 205 618 44 q 713 507 713 296 q 701 759 713 705 q 665 810 692 795 q 558 827 634 826 l 558 857 l 908 857 l 908 827 m 504 1013 q 425 1092 504 1092 q 369 1068 391 1092 q 347 1013 347 1044 q 369 958 347 982 q 425 931 392 931 q 482 956 460 931 q 504 1013 504 980 z "},"ů":{"ha":947,"x_min":39,"x_max":908,"o":"m 570 1013 q 527 924 570 959 q 425 888 485 888 q 325 925 368 888 q 281 1013 281 962 q 324 1100 281 1065 q 425 1134 366 1134 q 528 1101 487 1134 q 570 1013 570 1068 m 908 827 q 783 758 797 826 q 771 649 774 715 q 770 528 769 602 q 771 418 771 416 q 390 -20 771 -20 q 268 -4 334 -20 q 82 127 136 28 q 39 344 39 206 l 39 857 l 290 857 l 290 827 q 175 785 197 826 q 161 666 161 762 l 161 391 q 433 44 161 44 q 679 205 618 44 q 713 507 713 296 q 701 759 713 705 q 665 810 692 795 q 558 827 634 826 l 558 857 l 908 857 l 908 827 m 504 1013 q 425 1092 504 1092 q 369 1068 391 1092 q 347 1013 347 1044 q 369 958 347 982 q 425 931 392 931 q 482 956 460 931 q 504 1013 504 980 z "},"Ų":{"ha":484,"x_min":0,"x_max":0,"o":""},"ų":{"ha":484,"x_min":0,"x_max":0,"o":""},"Ŵ":{"ha":484,"x_min":0,"x_max":0,"o":""},"ŵ":{"ha":484,"x_min":0,"x_max":0,"o":""},"Ŷ":{"ha":484,"x_min":0,"x_max":0,"o":""},"ŷ":{"ha":484,"x_min":0,"x_max":0,"o":""},"Ÿ":{"ha":484,"x_min":0,"x_max":0,"o":""},"Ź":{"ha":484,"x_min":0,"x_max":0,"o":""},"ź":{"ha":484,"x_min":0,"x_max":0,"o":""},"Ž":{"ha":854,"x_min":33,"x_max":854,"o":"m 655 1050 l 473 907 l 446 907 l 267 1050 l 283 1072 l 461 987 l 638 1072 l 655 1050 m 854 212 q 802 0 826 74 l 41 0 l 33 15 l 654 814 l 388 814 q 218 788 258 814 q 146 652 176 760 l 110 652 q 123 857 121 787 l 814 857 l 821 844 l 205 52 l 626 52 q 682 62 647 52 q 732 84 717 73 q 818 219 779 121 l 854 212 z "},"ž":{"ha":854,"x_min":33,"x_max":854,"o":"m 655 1050 l 473 907 l 446 907 l 267 1050 l 283 1072 l 461 987 l 638 1072 l 655 1050 m 854 212 q 802 0 826 74 l 41 0 l 33 15 l 654 814 l 388 814 q 218 788 258 814 q 146 652 176 760 l 110 652 q 123 857 121 787 l 814 857 l 821 844 l 205 52 l 626 52 q 682 62 647 52 q 732 84 717 73 q 818 219 779 121 l 854 212 z "},"ſ":{"ha":484,"x_min":0,"x_max":0,"o":""},"ƒ":{"ha":484,"x_min":0,"x_max":0,"o":""},"Ǻ":{"ha":484,"x_min":0,"x_max":0,"o":""},"ǻ":{"ha":484,"x_min":0,"x_max":0,"o":""},"ǽ":{"ha":484,"x_min":0,"x_max":0,"o":""},"Ǿ":{"ha":484,"x_min":0,"x_max":0,"o":""},"ǿ":{"ha":484,"x_min":0,"x_max":0,"o":""},"ˆ":{"ha":484,"x_min":0,"x_max":0,"o":""},"ˇ":{"ha":484,"x_min":0,"x_max":0,"o":""},"ˉ":{"ha":484,"x_min":0,"x_max":0,"o":""},"˘":{"ha":484,"x_min":0,"x_max":0,"o":""},"˙":{"ha":484,"x_min":0,"x_max":0,"o":""},"˚":{"ha":484,"x_min":0,"x_max":0,"o":""},"˛":{"ha":484,"x_min":0,"x_max":0,"o":""},"˜":{"ha":484,"x_min":0,"x_max":0,"o":""},"˝":{"ha":484,"x_min":0,"x_max":0,"o":""},"΄":{"ha":484,"x_min":0,"x_max":0,"o":""},"΅":{"ha":484,"x_min":0,"x_max":0,"o":""},"Ά":{"ha":484,"x_min":0,"x_max":0,"o":""},"·":{"ha":484,"x_min":0,"x_max":0,"o":""},"Έ":{"ha":484,"x_min":0,"x_max":0,"o":""},"Ή":{"ha":484,"x_min":0,"x_max":0,"o":""},"Ί":{"ha":484,"x_min":0,"x_max":0,"o":""},"Ό":{"ha":484,"x_min":0,"x_max":0,"o":""},"Ύ":{"ha":484,"x_min":0,"x_max":0,"o":""},"Ώ":{"ha":484,"x_min":0,"x_max":0,"o":""},"ΐ":{"ha":484,"x_min":0,"x_max":0,"o":""},"Α":{"ha":484,"x_min":0,"x_max":0,"o":""},"Β":{"ha":484,"x_min":0,"x_max":0,"o":""},"Γ":{"ha":484,"x_min":0,"x_max":0,"o":""},"Ε":{"ha":484,"x_min":0,"x_max":0,"o":""},"Ζ":{"ha":484,"x_min":0,"x_max":0,"o":""},"Η":{"ha":484,"x_min":0,"x_max":0,"o":""},"Θ":{"ha":484,"x_min":0,"x_max":0,"o":""},"Ι":{"ha":484,"x_min":0,"x_max":0,"o":""},"Κ":{"ha":484,"x_min":0,"x_max":0,"o":""},"Λ":{"ha":484,"x_min":0,"x_max":0,"o":""},"Μ":{"ha":484,"x_min":0,"x_max":0,"o":""},"Ν":{"ha":484,"x_min":0,"x_max":0,"o":""},"Ξ":{"ha":484,"x_min":0,"x_max":0,"o":""},"Ο":{"ha":484,"x_min":0,"x_max":0,"o":""},"Π":{"ha":484,"x_min":0,"x_max":0,"o":""},"Ρ":{"ha":484,"x_min":0,"x_max":0,"o":""},"Σ":{"ha":484,"x_min":0,"x_max":0,"o":""},"Τ":{"ha":484,"x_min":0,"x_max":0,"o":""},"Υ":{"ha":484,"x_min":0,"x_max":0,"o":""},"Φ":{"ha":484,"x_min":0,"x_max":0,"o":""},"Χ":{"ha":484,"x_min":0,"x_max":0,"o":""},"Ψ":{"ha":484,"x_min":0,"x_max":0,"o":""},"Ϊ":{"ha":484,"x_min":0,"x_max":0,"o":""},"Ϋ":{"ha":484,"x_min":0,"x_max":0,"o":""},"ά":{"ha":484,"x_min":0,"x_max":0,"o":""},"έ":{"ha":484,"x_min":0,"x_max":0,"o":""},"ή":{"ha":484,"x_min":0,"x_max":0,"o":""},"ί":{"ha":484,"x_min":0,"x_max":0,"o":""},"ΰ":{"ha":484,"x_min":0,"x_max":0,"o":""},"α":{"ha":484,"x_min":0,"x_max":0,"o":""},"β":{"ha":484,"x_min":0,"x_max":0,"o":""},"γ":{"ha":484,"x_min":0,"x_max":0,"o":""},"δ":{"ha":484,"x_min":0,"x_max":0,"o":""},"ε":{"ha":484,"x_min":0,"x_max":0,"o":""},"ζ":{"ha":484,"x_min":0,"x_max":0,"o":""},"η":{"ha":484,"x_min":0,"x_max":0,"o":""},"θ":{"ha":484,"x_min":0,"x_max":0,"o":""},"ι":{"ha":484,"x_min":0,"x_max":0,"o":""},"κ":{"ha":484,"x_min":0,"x_max":0,"o":""},"λ":{"ha":484,"x_min":0,"x_max":0,"o":""},"μ":{"ha":484,"x_min":0,"x_max":0,"o":""},"ν":{"ha":484,"x_min":0,"x_max":0,"o":""},"ξ":{"ha":484,"x_min":0,"x_max":0,"o":""},"ο":{"ha":484,"x_min":0,"x_max":0,"o":""},"π":{"ha":484,"x_min":0,"x_max":0,"o":""},"ρ":{"ha":484,"x_min":0,"x_max":0,"o":""},"ς":{"ha":484,"x_min":0,"x_max":0,"o":""},"σ":{"ha":484,"x_min":0,"x_max":0,"o":""},"τ":{"ha":484,"x_min":0,"x_max":0,"o":""},"υ":{"ha":484,"x_min":0,"x_max":0,"o":""},"φ":{"ha":484,"x_min":0,"x_max":0,"o":""},"χ":{"ha":484,"x_min":0,"x_max":0,"o":""},"ψ":{"ha":484,"x_min":0,"x_max":0,"o":""},"ω":{"ha":484,"x_min":0,"x_max":0,"o":""},"ϊ":{"ha":484,"x_min":0,"x_max":0,"o":""},"ϋ":{"ha":484,"x_min":0,"x_max":0,"o":""},"ό":{"ha":484,"x_min":0,"x_max":0,"o":""},"ύ":{"ha":484,"x_min":0,"x_max":0,"o":""},"ώ":{"ha":484,"x_min":0,"x_max":0,"o":""},"Ё":{"ha":484,"x_min":0,"x_max":0,"o":""},"Ђ":{"ha":484,"x_min":0,"x_max":0,"o":""},"Ѓ":{"ha":484,"x_min":0,"x_max":0,"o":""},"Є":{"ha":484,"x_min":0,"x_max":0,"o":""},"Ѕ":{"ha":484,"x_min":0,"x_max":0,"o":""},"І":{"ha":484,"x_min":0,"x_max":0,"o":""},"Ї":{"ha":484,"x_min":0,"x_max":0,"o":""},"Ј":{"ha":484,"x_min":0,"x_max":0,"o":""},"Љ":{"ha":484,"x_min":0,"x_max":0,"o":""},"Њ":{"ha":484,"x_min":0,"x_max":0,"o":""},"Ћ":{"ha":484,"x_min":0,"x_max":0,"o":""},"Ќ":{"ha":484,"x_min":0,"x_max":0,"o":""},"Ў":{"ha":484,"x_min":0,"x_max":0,"o":""},"Џ":{"ha":484,"x_min":0,"x_max":0,"o":""},"А":{"ha":484,"x_min":0,"x_max":0,"o":""},"Б":{"ha":484,"x_min":0,"x_max":0,"o":""},"В":{"ha":484,"x_min":0,"x_max":0,"o":""},"Г":{"ha":484,"x_min":0,"x_max":0,"o":""},"Д":{"ha":484,"x_min":0,"x_max":0,"o":""},"Е":{"ha":484,"x_min":0,"x_max":0,"o":""},"Ж":{"ha":484,"x_min":0,"x_max":0,"o":""},"З":{"ha":484,"x_min":0,"x_max":0,"o":""},"И":{"ha":484,"x_min":0,"x_max":0,"o":""},"Й":{"ha":484,"x_min":0,"x_max":0,"o":""},"К":{"ha":484,"x_min":0,"x_max":0,"o":""},"Л":{"ha":484,"x_min":0,"x_max":0,"o":""},"М":{"ha":484,"x_min":0,"x_max":0,"o":""},"Н":{"ha":484,"x_min":0,"x_max":0,"o":""},"О":{"ha":484,"x_min":0,"x_max":0,"o":""},"П":{"ha":484,"x_min":0,"x_max":0,"o":""},"Р":{"ha":484,"x_min":0,"x_max":0,"o":""},"С":{"ha":484,"x_min":0,"x_max":0,"o":""},"Т":{"ha":484,"x_min":0,"x_max":0,"o":""},"У":{"ha":484,"x_min":0,"x_max":0,"o":""},"Ф":{"ha":484,"x_min":0,"x_max":0,"o":""},"Х":{"ha":484,"x_min":0,"x_max":0,"o":""},"Ц":{"ha":484,"x_min":0,"x_max":0,"o":""},"Ч":{"ha":484,"x_min":0,"x_max":0,"o":""},"Ш":{"ha":484,"x_min":0,"x_max":0,"o":""},"Щ":{"ha":484,"x_min":0,"x_max":0,"o":""},"Ъ":{"ha":484,"x_min":0,"x_max":0,"o":""},"Ы":{"ha":484,"x_min":0,"x_max":0,"o":""},"Ь":{"ha":484,"x_min":0,"x_max":0,"o":""},"Э":{"ha":484,"x_min":0,"x_max":0,"o":""},"Ю":{"ha":484,"x_min":0,"x_max":0,"o":""},"Я":{"ha":484,"x_min":0,"x_max":0,"o":""},"а":{"ha":484,"x_min":0,"x_max":0,"o":""},"б":{"ha":484,"x_min":0,"x_max":0,"o":""},"в":{"ha":484,"x_min":0,"x_max":0,"o":""},"г":{"ha":484,"x_min":0,"x_max":0,"o":""},"д":{"ha":484,"x_min":0,"x_max":0,"o":""},"е":{"ha":484,"x_min":0,"x_max":0,"o":""},"ж":{"ha":484,"x_min":0,"x_max":0,"o":""},"з":{"ha":484,"x_min":0,"x_max":0,"o":""},"и":{"ha":484,"x_min":0,"x_max":0,"o":""},"й":{"ha":484,"x_min":0,"x_max":0,"o":""},"к":{"ha":484,"x_min":0,"x_max":0,"o":""},"л":{"ha":484,"x_min":0,"x_max":0,"o":""},"м":{"ha":484,"x_min":0,"x_max":0,"o":""},"н":{"ha":484,"x_min":0,"x_max":0,"o":""},"о":{"ha":484,"x_min":0,"x_max":0,"o":""},"п":{"ha":484,"x_min":0,"x_max":0,"o":""},"р":{"ha":484,"x_min":0,"x_max":0,"o":""},"с":{"ha":484,"x_min":0,"x_max":0,"o":""},"т":{"ha":484,"x_min":0,"x_max":0,"o":""},"у":{"ha":484,"x_min":0,"x_max":0,"o":""},"ф":{"ha":484,"x_min":0,"x_max":0,"o":""},"х":{"ha":484,"x_min":0,"x_max":0,"o":""},"ц":{"ha":484,"x_min":0,"x_max":0,"o":""},"ч":{"ha":484,"x_min":0,"x_max":0,"o":""},"ш":{"ha":484,"x_min":0,"x_max":0,"o":""},"щ":{"ha":484,"x_min":0,"x_max":0,"o":""},"ъ":{"ha":484,"x_min":0,"x_max":0,"o":""},"ы":{"ha":484,"x_min":0,"x_max":0,"o":""},"ь":{"ha":484,"x_min":0,"x_max":0,"o":""},"э":{"ha":484,"x_min":0,"x_max":0,"o":""},"ю":{"ha":484,"x_min":0,"x_max":0,"o":""},"я":{"ha":484,"x_min":0,"x_max":0,"o":""},"ё":{"ha":484,"x_min":0,"x_max":0,"o":""},"ђ":{"ha":484,"x_min":0,"x_max":0,"o":""},"ѓ":{"ha":484,"x_min":0,"x_max":0,"o":""},"є":{"ha":484,"x_min":0,"x_max":0,"o":""},"ѕ":{"ha":484,"x_min":0,"x_max":0,"o":""},"і":{"ha":484,"x_min":0,"x_max":0,"o":""},"ї":{"ha":484,"x_min":0,"x_max":0,"o":""},"ј":{"ha":484,"x_min":0,"x_max":0,"o":""},"љ":{"ha":484,"x_min":0,"x_max":0,"o":""},"њ":{"ha":484,"x_min":0,"x_max":0,"o":""},"ћ":{"ha":484,"x_min":0,"x_max":0,"o":""},"ќ":{"ha":484,"x_min":0,"x_max":0,"o":""},"ў":{"ha":484,"x_min":0,"x_max":0,"o":""},"џ":{"ha":484,"x_min":0,"x_max":0,"o":""},"Ґ":{"ha":484,"x_min":0,"x_max":0,"o":""},"ґ":{"ha":484,"x_min":0,"x_max":0,"o":""},"Ẁ":{"ha":484,"x_min":0,"x_max":0,"o":""},"ẁ":{"ha":484,"x_min":0,"x_max":0,"o":""},"Ẃ":{"ha":484,"x_min":0,"x_max":0,"o":""},"ẃ":{"ha":484,"x_min":0,"x_max":0,"o":""},"Ẅ":{"ha":484,"x_min":0,"x_max":0,"o":""},"ẅ":{"ha":484,"x_min":0,"x_max":0,"o":""},"Ỳ":{"ha":484,"x_min":0,"x_max":0,"o":""},"ỳ":{"ha":484,"x_min":0,"x_max":0,"o":""},"–":{"ha":484,"x_min":0,"x_max":0,"o":""},"‗":{"ha":484,"x_min":0,"x_max":0,"o":""},"‘":{"ha":484,"x_min":0,"x_max":0,"o":""},"’":{"ha":484,"x_min":0,"x_max":0,"o":""},"‚":{"ha":484,"x_min":0,"x_max":0,"o":""},"‛":{"ha":484,"x_min":0,"x_max":0,"o":""},"“":{"ha":484,"x_min":0,"x_max":0,"o":""},"”":{"ha":484,"x_min":0,"x_max":0,"o":""},"„":{"ha":484,"x_min":0,"x_max":0,"o":""},"†":{"ha":484,"x_min":0,"x_max":0,"o":""},"‡":{"ha":484,"x_min":0,"x_max":0,"o":""},"•":{"ha":339,"x_min":66,"x_max":363,"o":"m 363 438 q 321 340 363 380 q 216 300 279 300 q 110 341 154 300 q 66 438 66 382 q 110 535 66 493 q 216 576 155 576 q 321 536 279 576 q 363 438 363 495 z "},"…":{"ha":1383,"x_min":160,"x_max":1299,"o":"m 1299 62 q 1276 6 1299 28 q 1215 -16 1252 -16 q 1156 7 1180 -16 q 1131 62 1131 30 q 1155 117 1131 95 q 1215 140 1179 140 q 1276 118 1253 140 q 1299 62 1299 97 m 814 62 q 790 6 814 28 q 729 -16 766 -16 q 670 7 694 -16 q 646 62 646 30 q 669 117 646 95 q 729 140 693 140 q 791 118 768 140 q 814 62 814 97 m 328 62 q 304 6 328 28 q 243 -16 281 -16 q 184 7 208 -16 q 160 62 160 30 q 184 117 160 95 q 243 140 208 140 q 305 118 282 140 q 328 62 328 97 z "},"′":{"ha":484,"x_min":0,"x_max":0,"o":""},"″":{"ha":484,"x_min":0,"x_max":0,"o":""},"‹":{"ha":484,"x_min":0,"x_max":0,"o":""},"›":{"ha":484,"x_min":0,"x_max":0,"o":""},"‼":{"ha":484,"x_min":0,"x_max":0,"o":""},"⁄":{"ha":484,"x_min":0,"x_max":0,"o":""},"₣":{"ha":484,"x_min":0,"x_max":0,"o":""},"₧":{"ha":484,"x_min":0,"x_max":0,"o":""},"℅":{"ha":484,"x_min":0,"x_max":0,"o":""},"ℓ":{"ha":484,"x_min":0,"x_max":0,"o":""},"№":{"ha":484,"x_min":0,"x_max":0,"o":""},"™":{"ha":943,"x_min":53,"x_max":980,"o":"m 980 844 q 928 832 939 843 q 918 780 918 821 q 928 452 918 774 l 806 452 l 806 467 q 859 483 850 469 q 865 536 865 492 q 863 793 865 539 l 859 793 l 692 459 l 673 459 l 515 785 l 513 785 q 505 539 505 567 q 516 482 505 494 q 571 467 528 470 l 571 452 l 410 452 l 410 467 q 467 499 460 470 q 479 618 475 534 l 491 857 l 536 857 l 702 536 l 866 857 l 980 857 l 980 844 m 427 764 l 410 762 q 378 824 399 810 q 311 836 361 836 l 265 836 l 265 543 q 277 482 265 495 q 337 468 289 469 l 337 454 l 138 454 l 138 468 q 196 482 184 469 q 208 543 208 494 l 208 836 l 53 836 l 53 856 l 422 856 q 427 764 422 825 z "},"℮":{"ha":484,"x_min":0,"x_max":0,"o":""},"⅛":{"ha":484,"x_min":0,"x_max":0,"o":""},"⅜":{"ha":484,"x_min":0,"x_max":0,"o":""},"⅝":{"ha":484,"x_min":0,"x_max":0,"o":""},"⅞":{"ha":484,"x_min":0,"x_max":0,"o":""},"↑":{"ha":484,"x_min":0,"x_max":0,"o":""},"↓":{"ha":484,"x_min":0,"x_max":0,"o":""},"↕":{"ha":484,"x_min":0,"x_max":0,"o":""},"↨":{"ha":484,"x_min":0,"x_max":0,"o":""},"∂":{"ha":484,"x_min":0,"x_max":0,"o":""},"∏":{"ha":484,"x_min":0,"x_max":0,"o":""},"∑":{"ha":484,"x_min":0,"x_max":0,"o":""},"­":{"ha":484,"x_min":0,"x_max":0,"o":""},"·":{"ha":484,"x_min":0,"x_max":0,"o":""},"√":{"ha":484,"x_min":0,"x_max":0,"o":""},"∞":{"ha":484,"x_min":0,"x_max":0,"o":""},"∟":{"ha":484,"x_min":0,"x_max":0,"o":""},"∩":{"ha":484,"x_min":0,"x_max":0,"o":""},"∫":{"ha":484,"x_min":0,"x_max":0,"o":""},"≈":{"ha":484,"x_min":0,"x_max":0,"o":""},"≠":{"ha":484,"x_min":0,"x_max":0,"o":""},"≡":{"ha":484,"x_min":0,"x_max":0,"o":""},"≤":{"ha":484,"x_min":0,"x_max":0,"o":""},"≥":{"ha":484,"x_min":0,"x_max":0,"o":""},"⌂":{"ha":484,"x_min":0,"x_max":0,"o":""},"⌐":{"ha":484,"x_min":0,"x_max":0,"o":""},"⌠":{"ha":484,"x_min":0,"x_max":0,"o":""},"⌡":{"ha":484,"x_min":0,"x_max":0,"o":""},"─":{"ha":484,"x_min":0,"x_max":0,"o":""},"│":{"ha":484,"x_min":0,"x_max":0,"o":""},"┌":{"ha":484,"x_min":0,"x_max":0,"o":""},"┐":{"ha":484,"x_min":0,"x_max":0,"o":""},"└":{"ha":484,"x_min":0,"x_max":0,"o":""},"┘":{"ha":484,"x_min":0,"x_max":0,"o":""},"├":{"ha":484,"x_min":0,"x_max":0,"o":""},"┤":{"ha":484,"x_min":0,"x_max":0,"o":""},"┬":{"ha":484,"x_min":0,"x_max":0,"o":""},"┴":{"ha":484,"x_min":0,"x_max":0,"o":""},"┼":{"ha":484,"x_min":0,"x_max":0,"o":""},"═":{"ha":484,"x_min":0,"x_max":0,"o":""},"║":{"ha":484,"x_min":0,"x_max":0,"o":""},"╒":{"ha":484,"x_min":0,"x_max":0,"o":""},"╓":{"ha":484,"x_min":0,"x_max":0,"o":""},"╔":{"ha":484,"x_min":0,"x_max":0,"o":""},"╕":{"ha":484,"x_min":0,"x_max":0,"o":""},"╖":{"ha":484,"x_min":0,"x_max":0,"o":""},"╗":{"ha":484,"x_min":0,"x_max":0,"o":""},"╘":{"ha":484,"x_min":0,"x_max":0,"o":""},"╙":{"ha":484,"x_min":0,"x_max":0,"o":""},"╚":{"ha":484,"x_min":0,"x_max":0,"o":""},"╛":{"ha":484,"x_min":0,"x_max":0,"o":""},"╜":{"ha":484,"x_min":0,"x_max":0,"o":""},"╝":{"ha":484,"x_min":0,"x_max":0,"o":""},"╞":{"ha":484,"x_min":0,"x_max":0,"o":""},"╟":{"ha":484,"x_min":0,"x_max":0,"o":""},"╠":{"ha":484,"x_min":0,"x_max":0,"o":""},"╡":{"ha":484,"x_min":0,"x_max":0,"o":""},"╢":{"ha":484,"x_min":0,"x_max":0,"o":""},"╣":{"ha":484,"x_min":0,"x_max":0,"o":""},"╤":{"ha":484,"x_min":0,"x_max":0,"o":""},"╥":{"ha":484,"x_min":0,"x_max":0,"o":""},"╦":{"ha":484,"x_min":0,"x_max":0,"o":""},"╧":{"ha":484,"x_min":0,"x_max":0,"o":""},"╨":{"ha":484,"x_min":0,"x_max":0,"o":""},"╩":{"ha":484,"x_min":0,"x_max":0,"o":""},"╪":{"ha":484,"x_min":0,"x_max":0,"o":""},"╫":{"ha":484,"x_min":0,"x_max":0,"o":""},"╬":{"ha":484,"x_min":0,"x_max":0,"o":""},"▀":{"ha":484,"x_min":0,"x_max":0,"o":""},"▄":{"ha":484,"x_min":0,"x_max":0,"o":""},"█":{"ha":484,"x_min":0,"x_max":0,"o":""},"▌":{"ha":484,"x_min":0,"x_max":0,"o":""},"▐":{"ha":484,"x_min":0,"x_max":0,"o":""},"░":{"ha":484,"x_min":0,"x_max":0,"o":""},"▒":{"ha":484,"x_min":0,"x_max":0,"o":""},"▓":{"ha":484,"x_min":0,"x_max":0,"o":""},"■":{"ha":484,"x_min":0,"x_max":0,"o":""},"□":{"ha":484,"x_min":0,"x_max":0,"o":""},"▪":{"ha":484,"x_min":0,"x_max":0,"o":""},"▫":{"ha":484,"x_min":0,"x_max":0,"o":""},"▲":{"ha":484,"x_min":0,"x_max":0,"o":""},"►":{"ha":484,"x_min":0,"x_max":0,"o":""},"▼":{"ha":484,"x_min":0,"x_max":0,"o":""},"◄":{"ha":484,"x_min":0,"x_max":0,"o":""},"◊":{"ha":484,"x_min":0,"x_max":0,"o":""},"○":{"ha":484,"x_min":0,"x_max":0,"o":""},"●":{"ha":484,"x_min":0,"x_max":0,"o":""},"◘":{"ha":484,"x_min":0,"x_max":0,"o":""},"◙":{"ha":484,"x_min":0,"x_max":0,"o":""},"◦":{"ha":484,"x_min":0,"x_max":0,"o":""},"☺":{"ha":484,"x_min":0,"x_max":0,"o":""},"☻":{"ha":484,"x_min":0,"x_max":0,"o":""},"☼":{"ha":484,"x_min":0,"x_max":0,"o":""},"♀":{"ha":484,"x_min":0,"x_max":0,"o":""},"♂":{"ha":484,"x_min":0,"x_max":0,"o":""},"♠":{"ha":484,"x_min":0,"x_max":0,"o":""},"♣":{"ha":484,"x_min":0,"x_max":0,"o":""},"♥":{"ha":484,"x_min":0,"x_max":0,"o":""},"♦":{"ha":484,"x_min":0,"x_max":0,"o":""},"♪":{"ha":484,"x_min":0,"x_max":0,"o":""},"♫":{"ha":484,"x_min":0,"x_max":0,"o":""},"²":{"ha":484,"x_min":0,"x_max":0,"o":""},"³":{"ha":484,"x_min":0,"x_max":0,"o":""},"¹":{"ha":484,"x_min":0,"x_max":0,"o":""}," ":{"ha":484,"x_min":0,"x_max":0,"o":""},"€":{"ha":708,"x_min":-24,"x_max":719,"o":"m 719 840 q 695 661 707 774 l 692 656 l 652 656 l 648 661 l 642 772 q 463 855 599 855 q 260 747 333 855 q 191 532 201 661 l 557 532 l 562 524 l 559 488 l 553 482 l 189 482 l 188 448 q 189 408 188 430 l 541 408 l 547 401 l 543 366 l 537 359 l 193 359 q 269 143 201 231 q 481 41 349 41 q 673 89 587 41 l 684 75 l 664 25 q 446 -26 572 -26 q 48 359 86 -26 l -18 359 l -24 366 l -20 401 l -14 408 l 45 408 q 45 482 43 452 l -18 482 l -24 488 l -20 524 l -14 532 l 53 532 q 190 791 75 684 q 475 907 312 907 q 715 846 626 907 l 719 840 z "},"":{"ha":484,"x_min":0,"x_max":0,"o":""},"":{"ha":484,"x_min":0,"x_max":0,"o":""},"¯":{"ha":484,"x_min":0,"x_max":0,"o":""},"İ":{"ha":484,"x_min":0,"x_max":0,"o":""},"Ċ":{"ha":484,"x_min":0,"x_max":0,"o":""},"ċ":{"ha":484,"x_min":0,"x_max":0,"o":""},"Đ":{"ha":484,"x_min":0,"x_max":0,"o":""},"Ė":{"ha":484,"x_min":0,"x_max":0,"o":""},"ė":{"ha":484,"x_min":0,"x_max":0,"o":""},"Ġ":{"ha":484,"x_min":0,"x_max":0,"o":""},"ġ":{"ha":484,"x_min":0,"x_max":0,"o":""},"Ģ":{"ha":484,"x_min":0,"x_max":0,"o":""},"ģ":{"ha":484,"x_min":0,"x_max":0,"o":""},"Ķ":{"ha":484,"x_min":0,"x_max":0,"o":""},"ķ":{"ha":484,"x_min":0,"x_max":0,"o":""},"Ļ":{"ha":484,"x_min":0,"x_max":0,"o":""},"ļ":{"ha":484,"x_min":0,"x_max":0,"o":""},"Ņ":{"ha":484,"x_min":0,"x_max":0,"o":""},"ņ":{"ha":484,"x_min":0,"x_max":0,"o":""},"Ő":{"ha":484,"x_min":0,"x_max":0,"o":""},"ő":{"ha":484,"x_min":0,"x_max":0,"o":""},"Ŗ":{"ha":484,"x_min":0,"x_max":0,"o":""},"ŗ":{"ha":484,"x_min":0,"x_max":0,"o":""},"Ţ":{"ha":484,"x_min":0,"x_max":0,"o":""},"ţ":{"ha":484,"x_min":0,"x_max":0,"o":""},"Ű":{"ha":484,"x_min":0,"x_max":0,"o":""},"ű":{"ha":484,"x_min":0,"x_max":0,"o":""},"Ż":{"ha":484,"x_min":0,"x_max":0,"o":""},"ż":{"ha":484,"x_min":0,"x_max":0,"o":""},"Δ":{"ha":484,"x_min":0,"x_max":0,"o":""},"Ω":{"ha":484,"x_min":0,"x_max":0,"o":""},"µ":{"ha":484,"x_min":0,"x_max":0,"o":""},"‾":{"ha":484,"x_min":0,"x_max":0,"o":""},"ⁿ":{"ha":484,"x_min":0,"x_max":0,"o":""},"₤":{"ha":484,"x_min":0,"x_max":0,"o":""},"":{"ha":484,"x_min":0,"x_max":0,"o":""},"":{"ha":484,"x_min":0,"x_max":0,"o":""}}}
